<?xml version="1.0" encoding="UTF-8"?>
<svg version="1.1" xmlns="http://www.w3.org/2000/svg" width="626" height="626">
<path d="M0 0 C206.58 0 413.16 0 626 0 C626 206.58 626 413.16 626 626 C419.42 626 212.84 626 0 626 C0 419.42 0 212.84 0 0 Z " fill="#7140FE" transform="translate(0,0)"/>
<path d="M0 0 C206.58 0 413.16 0 626 0 C626 206.58 626 413.16 626 626 C419.42 626 212.84 626 0 626 C0 419.42 0 212.84 0 0 Z M74 61 C73.16082031 61.67546875 72.32164063 62.3509375 71.45703125 63.046875 C56.74930401 75.54274248 46.98184065 92.42907917 42 111 C41.65910245 112.22751763 41.3182049 113.45503527 40.96697712 114.7197504 C39.47478527 121.5467317 39.72026474 128.47595892 39.73930359 135.42539978 C39.73628001 136.9918896 39.73238949 138.55837794 39.72771102 140.12486368 C39.7174482 144.41380371 39.71960851 148.70265999 39.72389162 152.99160683 C39.72636209 157.62374717 39.71734044 162.25586751 39.70985413 166.88800049 C39.69711204 175.95872608 39.69531299 185.02942207 39.69765439 194.10015511 C39.699439 201.47822222 39.69768483 208.85628035 39.69342995 216.23434639 C39.69283476 217.2853426 39.69223957 218.33633881 39.69162634 219.41918339 C39.69041455 221.55452342 39.68920042 223.68986346 39.68798397 225.82520349 C39.67710939 245.84814674 39.67926997 265.87107315 39.68536881 285.89401735 C39.69053249 304.18480943 39.67929689 322.47554816 39.66027059 340.7663297 C39.6408638 359.5678529 39.63264152 378.36935091 39.63639385 397.17088419 C39.63830227 407.71804055 39.63585376 418.26515157 39.62167931 428.81229973 C39.60972795 437.79598535 39.60840219 446.77959774 39.62046947 455.76328444 C39.62633317 460.34070181 39.62752783 464.91798551 39.61546707 469.49539375 C39.60452242 473.69837199 39.60781212 477.90110635 39.62172876 482.10407359 C39.62435242 483.61219013 39.62208393 485.12032633 39.61399289 486.62842344 C39.57360021 494.7295747 40.04743598 502.54265897 41.35542011 510.54723454 C41.53373799 511.64098766 41.53373799 511.64098766 41.71565826 512.7568368 C45.81937808 535.78034417 61.25520823 556.71732407 80.125 570.0625 C104.08113565 585.13978817 126.5948908 586.75012097 154.15226305 586.62430525 C158.77742288 586.60873021 163.40251625 586.62231789 168.02767944 586.63204956 C177.06368807 586.64650353 186.09947037 586.63441593 195.13545746 586.61293632 C205.67785604 586.58880499 216.22020408 586.59064811 226.76262414 586.59324223 C245.58357672 586.59692447 264.40442337 586.5761752 283.2253418 586.54199219 C301.45193152 586.50890132 319.67841013 586.49473568 337.9050293 586.50097656 C357.79589979 586.50775388 377.68672388 586.50524268 397.57758754 586.48561716 C398.63122557 586.48457768 399.68486359 586.48353819 400.77043004 586.4824672 C402.88606289 586.48037645 405.00169573 586.47826548 407.11732854 586.47613403 C414.45087375 586.46926394 421.7844046 586.46856486 429.11795235 586.47001648 C438.06481367 586.47146219 447.01158489 586.46165639 455.95841641 586.43807012 C460.51563986 586.42628114 465.07273838 586.41903722 469.62997627 586.42490768 C473.8140686 586.4301379 477.99789868 586.42118908 482.18194639 586.40163308 C483.68302745 586.39695322 485.1841346 586.39711496 486.68521125 586.40304345 C514.91939339 586.5036464 539.30201149 578.10309814 559.7890625 558.3046875 C570.78560892 546.64369719 580.91705171 530.30406483 584.0625 514.3125 C584.21847656 513.54550781 584.37445312 512.77851562 584.53515625 511.98828125 C586.00985509 502.50807441 586.14901836 493.09038567 586.14717102 483.51681519 C586.15047584 481.95628746 586.1542027 480.39576058 586.1583125 478.83523476 C586.16826968 474.56752028 586.17203906 470.29981987 586.17470181 466.03209543 C586.17862342 461.4211458 586.1882001 456.81020712 586.19691467 452.19926453 C586.21662268 441.0768265 586.22673625 429.95438764 586.23564246 418.83193654 C586.24003303 413.58704488 586.24539768 408.34215421 586.25063133 403.09726334 C586.26763488 385.65194089 586.28212902 368.20661905 586.28938007 350.7612896 C586.29128977 346.24027379 586.29321014 341.71925798 586.29516602 337.19824219 C586.29564976 336.07465117 586.2961335 334.95106015 586.2966319 333.79342093 C586.30493238 315.59186249 586.33027354 297.39036976 586.36274669 279.18884002 C586.3958517 260.47995956 586.41383178 241.77111247 586.41702431 223.06220257 C586.41918578 212.56652121 586.42788164 202.07093579 586.45348549 191.57528305 C586.47523919 182.63766982 586.48321981 173.70017589 586.47351871 164.76253919 C586.46898808 160.20759488 586.47078795 155.65289647 586.49028015 151.09798622 C586.50801292 146.91791995 586.50683312 142.73827714 586.49138286 138.55820574 C586.48902208 137.05620586 586.49324971 135.55417586 586.50521151 134.05222176 C586.70110042 107.80346665 576.03501709 84.81187336 558 66 C538.40667846 47.20315494 514.13840349 39.32435874 487.38514709 39.4853363 C485.7992234 39.47999312 484.21330479 39.47291738 482.62739557 39.46428925 C478.32642931 39.44586959 474.0258122 39.45189435 469.72483265 39.46244228 C465.06418099 39.4694938 460.40359684 39.45339169 455.7429657 39.44044495 C446.63500896 39.41889884 437.52717763 39.41890756 428.41920383 39.42707049 C421.01084063 39.43339214 413.60251377 39.4322137 406.19415092 39.42579842 C405.13633676 39.42489676 404.0785226 39.42399511 402.98865346 39.42306613 C400.83914196 39.42121477 398.68963047 39.41935221 396.54011898 39.41747857 C376.4231382 39.40093295 356.30622772 39.40959184 336.18925118 39.42646415 C317.818835 39.4411595 299.44858241 39.42652921 281.07818729 39.39769398 C262.17353044 39.36824316 243.26894893 39.35734418 224.36427015 39.36687618 C222.22273506 39.36789864 220.08119996 39.36889326 217.93966484 39.3698597 C216.88622981 39.37033609 215.83279477 39.37081248 214.74743747 39.3713033 C207.35623925 39.37345985 199.96511301 39.36370399 192.57393074 39.34908867 C183.55457796 39.33150111 174.53543362 39.33177449 165.51608879 39.35444032 C160.9222028 39.36552415 156.32868314 39.36887932 151.73481369 39.35013962 C122.43027434 39.23958434 97.56662945 41.79484629 74 61 Z " fill="#FEFEFE" transform="translate(0,0)"/>
<path d="M0 0 C0.90878906 0.49113281 1.81757813 0.98226562 2.75390625 1.48828125 C8.99634267 5.04536781 14.58520839 9.3897229 20.21484375 13.828125 C22.98409319 16.04300836 22.98409319 16.04300836 26 18 C26 18.66 26 19.32 26 20 C26.53496094 20.20367187 27.06992187 20.40734375 27.62109375 20.6171875 C50.89046433 34.14322557 65.01357861 69.70200076 71.56591797 94.10791016 C81.58024931 133.59951017 72.33183199 174.51678854 52 209 C39.97772276 228.06354215 22.53505748 244.75707017 3 256 C4.63963796 261.94615694 7.62375462 267.03522078 10.625 272.375 C11.140625 273.30183594 11.65625 274.22867187 12.1875 275.18359375 C13.45382811 277.45829425 14.72475925 279.73028792 16 282 C18.90445356 282.23407343 18.90445356 282.23407343 20.8359375 281.02734375 C25.98900689 278.58103103 32.4435096 279.26447343 37.796875 280.8046875 C44.52576691 283.76132182 47.55470939 287.68087323 51 294 C51.79029702 295.40051334 52.58209724 296.800179 53.375 298.19921875 C55.95507694 302.77868538 58.48123954 307.38661144 61 312 C61.55945313 313.01707031 62.11890625 314.03414063 62.6953125 315.08203125 C66.14482688 321.36844133 69.51228342 327.69813378 72.875 334.03125 C74.50853063 337.0973042 76.17346915 340.14522881 77.84375 343.19140625 C81.14328802 349.23192356 84.33043807 355.32799998 87.5 361.4375 C88.04269531 362.47970703 88.58539063 363.52191406 89.14453125 364.59570312 C90.22913457 366.68337038 91.30959362 368.77319632 92.38574219 370.86523438 C93.48598055 373.00181342 94.59644768 375.13314874 95.71582031 377.25976562 C96.25819336 378.30712891 96.80056641 379.35449219 97.359375 380.43359375 C97.84889648 381.36872803 98.33841797 382.3038623 98.84277344 383.26733398 C101.22142843 388.88427182 101.05732037 393.91958179 99.09765625 399.62890625 C95.14603035 407.49612498 88.53958502 410.97659545 81 415 C80.00355469 415.60328125 79.00710938 416.2065625 77.98046875 416.828125 C70.42797951 421.15538791 63.64319698 422.40898831 55 421 C45.63007948 417.43188785 41.66342702 408.87122371 37.1875 400.5 C36.383125 399.01016602 36.383125 399.01016602 35.5625 397.49023438 C34.03697122 394.66265017 32.51759405 391.83184859 31 389 C30.36104481 387.8123021 29.72179432 386.62476293 29.08203125 385.4375 C28.01521674 383.45664935 26.95015025 381.4748564 25.88671875 379.4921875 C24.37823466 376.70008652 22.85891408 373.91484927 21.33203125 371.1328125 C15.49568205 360.49181141 9.76024793 349.80820062 4.18481445 339.02783203 C1.29714008 333.45048369 -1.66035654 327.91842161 -4.68994141 322.41674805 C-8.14808217 316.03729679 -8.86597855 311.32396754 -8 304 C-5.64566098 296.46840091 -0.70507375 292.72504097 6 289 C3.08067166 282.01899744 -0.38373145 275.40412048 -4.00170898 268.76586914 C-4.38786377 268.05035889 -4.77401855 267.33484863 -5.171875 266.59765625 C-5.5234668 265.95320557 -5.87505859 265.30875488 -6.23730469 264.64477539 C-7 263 -7 263 -7 261 C-7.51304687 261.29132813 -8.02609375 261.58265625 -8.5546875 261.8828125 C-16.9833723 266.3951387 -25.85773697 269.31242669 -35 272 C-35.72268066 272.2160791 -36.44536133 272.4321582 -37.18994141 272.65478516 C-72.83862957 282.88539797 -114.21943925 275.37801473 -146.24804688 257.76367188 C-155.19000951 252.62987662 -163.1893563 246.72474181 -171 240 C-171.92425781 239.29617188 -172.84851563 238.59234375 -173.80078125 237.8671875 C-174.52652344 237.25101562 -175.25226563 236.63484375 -176 236 C-176 235.34 -176 234.68 -176 234 C-176.66 234 -177.32 234 -178 234 C-178 233.34 -178 232.68 -178 232 C-178.66 232 -179.32 232 -180 232 C-182.58283093 229.57125841 -184.75479846 226.73815169 -187 224 C-187.78117187 223.05511719 -188.56234375 222.11023438 -189.3671875 221.13671875 C-198.45863628 209.88191637 -205.45263205 197.35261198 -211 184 C-211.41894531 183.03320312 -211.83789062 182.06640625 -212.26953125 181.0703125 C-223.56227133 153.70844681 -225.20623394 118.40619442 -217 90 C-216.80164551 89.26539551 -216.60329102 88.53079102 -216.39892578 87.77392578 C-209.77332886 63.60657346 -196.23272224 42.87191817 -179 25 C-178.29617187 24.23300781 -177.59234375 23.46601563 -176.8671875 22.67578125 C-131.56846026 -25.29264284 -55.99960169 -30.5509638 0 0 Z " fill="#544DFD" transform="translate(374,112)"/>
<path d="M0 0 C0.90878906 0.49113281 1.81757813 0.98226562 2.75390625 1.48828125 C8.99634267 5.04536781 14.58520839 9.3897229 20.21484375 13.828125 C22.98409319 16.04300836 22.98409319 16.04300836 26 18 C26 18.66 26 19.32 26 20 C26.53496094 20.20367187 27.06992187 20.40734375 27.62109375 20.6171875 C50.89046433 34.14322557 65.01357861 69.70200076 71.56591797 94.10791016 C81.58024931 133.59951017 72.33183199 174.51678854 52 209 C39.97772276 228.06354215 22.53505748 244.75707017 3 256 C4.63963796 261.94615694 7.62375462 267.03522078 10.625 272.375 C11.140625 273.30183594 11.65625 274.22867187 12.1875 275.18359375 C13.45382811 277.45829425 14.72475925 279.73028792 16 282 C18.90445356 282.23407343 18.90445356 282.23407343 20.8359375 281.02734375 C25.98900689 278.58103103 32.4435096 279.26447343 37.796875 280.8046875 C44.52576691 283.76132182 47.55470939 287.68087323 51 294 C51.79029702 295.40051334 52.58209724 296.800179 53.375 298.19921875 C55.95507694 302.77868538 58.48123954 307.38661144 61 312 C61.55945313 313.01707031 62.11890625 314.03414063 62.6953125 315.08203125 C66.14482688 321.36844133 69.51228342 327.69813378 72.875 334.03125 C74.50853063 337.0973042 76.17346915 340.14522881 77.84375 343.19140625 C81.14328802 349.23192356 84.33043807 355.32799998 87.5 361.4375 C88.04269531 362.47970703 88.58539063 363.52191406 89.14453125 364.59570312 C90.22913457 366.68337038 91.30959362 368.77319632 92.38574219 370.86523438 C93.48598055 373.00181342 94.59644768 375.13314874 95.71582031 377.25976562 C96.25819336 378.30712891 96.80056641 379.35449219 97.359375 380.43359375 C97.84889648 381.36872803 98.33841797 382.3038623 98.84277344 383.26733398 C101.22142843 388.88427182 101.05732037 393.91958179 99.09765625 399.62890625 C95.14603035 407.49612498 88.53958502 410.97659545 81 415 C80.00355469 415.60328125 79.00710938 416.2065625 77.98046875 416.828125 C70.42797951 421.15538791 63.64319698 422.40898831 55 421 C45.63007948 417.43188785 41.66342702 408.87122371 37.1875 400.5 C36.383125 399.01016602 36.383125 399.01016602 35.5625 397.49023438 C34.03697122 394.66265017 32.51759405 391.83184859 31 389 C30.36104481 387.8123021 29.72179432 386.62476293 29.08203125 385.4375 C28.01521674 383.45664935 26.95015025 381.4748564 25.88671875 379.4921875 C24.37823466 376.70008652 22.85891408 373.91484927 21.33203125 371.1328125 C15.49568205 360.49181141 9.76024793 349.80820062 4.18481445 339.02783203 C1.29714008 333.45048369 -1.66035654 327.91842161 -4.68994141 322.41674805 C-8.14808217 316.03729679 -8.86597855 311.32396754 -8 304 C-5.64566098 296.46840091 -0.70507375 292.72504097 6 289 C3.08067166 282.01899744 -0.38373145 275.40412048 -4.00170898 268.76586914 C-4.38786377 268.05035889 -4.77401855 267.33484863 -5.171875 266.59765625 C-5.5234668 265.95320557 -5.87505859 265.30875488 -6.23730469 264.64477539 C-7 263 -7 263 -7 261 C-7.51304687 261.29132813 -8.02609375 261.58265625 -8.5546875 261.8828125 C-16.9833723 266.3951387 -25.85773697 269.31242669 -35 272 C-35.72268066 272.2160791 -36.44536133 272.4321582 -37.18994141 272.65478516 C-72.83862957 282.88539797 -114.21943925 275.37801473 -146.24804688 257.76367188 C-155.19000951 252.62987662 -163.1893563 246.72474181 -171 240 C-171.92425781 239.29617188 -172.84851563 238.59234375 -173.80078125 237.8671875 C-174.52652344 237.25101562 -175.25226563 236.63484375 -176 236 C-176 235.34 -176 234.68 -176 234 C-176.66 234 -177.32 234 -178 234 C-178 233.34 -178 232.68 -178 232 C-178.66 232 -179.32 232 -180 232 C-182.58283093 229.57125841 -184.75479846 226.73815169 -187 224 C-187.78117187 223.05511719 -188.56234375 222.11023438 -189.3671875 221.13671875 C-198.45863628 209.88191637 -205.45263205 197.35261198 -211 184 C-211.41894531 183.03320312 -211.83789062 182.06640625 -212.26953125 181.0703125 C-223.56227133 153.70844681 -225.20623394 118.40619442 -217 90 C-216.80164551 89.26539551 -216.60329102 88.53079102 -216.39892578 87.77392578 C-209.77332886 63.60657346 -196.23272224 42.87191817 -179 25 C-178.29617187 24.23300781 -177.59234375 23.46601563 -176.8671875 22.67578125 C-131.56846026 -25.29264284 -55.99960169 -30.5509638 0 0 Z M-118 -2 C-119.19625 -1.58234375 -120.3925 -1.1646875 -121.625 -0.734375 C-124.49702139 0.38750835 -127.23272184 1.64246732 -130 3 C-131.59521484 3.71542969 -131.59521484 3.71542969 -133.22265625 4.4453125 C-165.98908436 19.738775 -190.75084835 47.95928558 -203.36328125 81.640625 C-208.54804272 96.23337184 -211.20124254 110.74330342 -211.125 126.1875 C-211.12016602 127.21053223 -211.11533203 128.23356445 -211.11035156 129.28759766 C-210.85102318 161.95778717 -200.1878475 191.95044526 -179 217 C-178.56429687 217.51546387 -178.12859375 218.03092773 -177.6796875 218.56201172 C-162.64883298 236.10350239 -144.40620219 248.57700816 -123 257 C-122.36626465 257.25120605 -121.7325293 257.50241211 -121.07958984 257.76123047 C-95.25936254 267.75503857 -65.49897683 269.56927537 -38.875 261.875 C-37.23313721 261.40259888 -37.23313721 261.40259888 -35.55810547 260.9206543 C0.49373134 250.29894742 30.13516372 227.84440807 48.32714844 194.57275391 C53.57020926 184.45881229 58.0500653 174.01919039 61 163 C61.29197266 161.92540527 61.29197266 161.92540527 61.58984375 160.82910156 C70.19116946 127.87140745 64.78759813 91.48913034 48 62 C47.62359375 61.32984863 47.2471875 60.65969727 46.859375 59.96923828 C41.39848241 50.37399493 35.15674977 42.2193555 27.37695312 34.39599609 C26.14747446 33.149514 24.9538546 31.8678951 23.765625 30.58203125 C9.71788634 15.6629103 -8.86091165 5.07012368 -28.125 -1.4375 C-29.06529053 -1.75549561 -30.00558105 -2.07349121 -30.97436523 -2.40112305 C-45.41273174 -7.00500126 -59.41807221 -8.61210785 -74.5 -8.5625 C-75.32506042 -8.56301361 -76.15012085 -8.56352722 -77.00018311 -8.5640564 C-91.31865309 -8.52621159 -104.42545295 -6.79586862 -118 -2 Z " fill="#F8F7F9" transform="translate(374,112)"/>
<path d="M0 0 C4.81043031 3.38118732 7.46607318 6.89166478 10.1015625 12.15234375 C10.46033478 12.84082397 10.81910706 13.5293042 11.18875122 14.23864746 C12.34624124 16.46558241 13.48543188 18.70134998 14.625 20.9375 C15.42328474 22.47938488 16.22310018 24.0204782 17.02441406 25.56079102 C18.22554858 27.87012815 19.42575347 30.17988878 20.62097168 32.49229431 C23.91071555 38.85608723 27.29918258 45.15935107 30.75 51.4375 C31.20197754 52.2617749 31.65395508 53.0860498 32.11962891 53.93530273 C32.97629974 55.4965508 33.83378061 57.0573547 34.69213867 58.61767578 C36.12493481 61.22757399 37.54906433 63.84210196 38.97265625 66.45703125 C40.92931923 70.04739146 42.89978632 73.62942982 44.88671875 77.203125 C45.35013672 78.0384375 45.81355469 78.87375 46.29101562 79.734375 C47.2313972 81.42837706 48.17415329 83.12106291 49.11914062 84.8125 C56.95396405 98.96572942 56.95396405 98.96572942 55 106 C51.728915 111.24234412 47.13261685 113.53087423 41.8125 116.3125 C40.99974609 116.76689453 40.18699219 117.22128906 39.34960938 117.68945312 C33.59059338 120.73618792 29.50121808 121.49004156 23 121 C23 120.34 23 119.68 23 119 C22.38987061 118.74283203 21.77974121 118.48566406 21.15112305 118.22070312 C18.74445206 116.85498358 17.96182944 115.83325925 16.58203125 113.46875 C16.16002441 112.75332031 15.73801758 112.03789063 15.30322266 111.30078125 C14.87315918 110.54152344 14.4430957 109.78226562 14 109 C13.57122559 108.25105469 13.14245117 107.50210938 12.70068359 106.73046875 C11.34384011 104.33040372 10.01190471 101.91810819 8.6875 99.5 C8.20966064 98.63068848 7.73182129 97.76137695 7.23950195 96.86572266 C3.91216594 90.77256991 0.76390098 84.6095541 -2.29223633 78.37695312 C-4.45859938 73.989439 -6.85670011 69.83922156 -9.4375 65.6875 C-11.85488198 61.529603 -13.91879596 57.20314099 -16.03686523 52.88720703 C-17.90266844 49.11280084 -19.84462122 45.4590921 -22.0625 41.875 C-24.50027189 37.91278123 -26.73679666 33.87957726 -28.875 29.75 C-29.76832031 28.04070312 -29.76832031 28.04070312 -30.6796875 26.296875 C-32.09480223 22.76327489 -32.56614779 20.75445375 -32 17 C-29.10100071 10.72969255 -24.09128081 8.25851507 -18.25 5.125 C-17.38117188 4.62742187 -16.51234375 4.12984375 -15.6171875 3.6171875 C-10.14820704 0.62813512 -6.23681099 -1.05686546 0 0 Z " fill="#9E2EFD" transform="translate(408,402)"/>
<path d="M0 0 C2 2 2 2 2.5625 4.25 C1.18338043 10.99236236 -8.47340962 15.50907776 -13.875 19.125 C-15.55540659 20.26195875 -17.23507816 21.40000451 -18.9140625 22.5390625 C-19.7587207 23.11172852 -20.60337891 23.68439453 -21.47363281 24.27441406 C-25.42804523 26.9753985 -29.34175662 29.732786 -33.25 32.5 C-33.92788574 32.97969238 -34.60577148 33.45938477 -35.30419922 33.95361328 C-39.54378721 36.95836982 -43.77299198 39.97757975 -48 43 C-44.21872921 47.21282887 -39.63269491 50.18708525 -35 53.375 C-33.2057168 54.62107594 -31.41144635 55.86717024 -29.6171875 57.11328125 C-27.74482569 58.40890334 -25.8724296 59.70447588 -24 61 C-20.37175616 63.51619914 -16.74759286 66.03817457 -13.125 68.5625 C-12.3 69.13339355 -11.475 69.70428711 -10.625 70.29248047 C-1.62552345 76.56129901 -1.62552345 76.56129901 2 80 C1.90196078 85.09803922 1.90196078 85.09803922 0 87 C-5.62094918 87.75505287 -8.78309568 85.58961568 -13.125 82.375 C-14.54947469 81.35806665 -15.97395408 80.34113987 -17.3984375 79.32421875 C-18.14706055 78.78200684 -18.89568359 78.23979492 -19.66699219 77.68115234 C-22.83889772 75.39549501 -26.04612479 73.16214455 -29.25390625 70.92724609 C-31.76925866 69.17407695 -34.27967509 67.41403811 -36.7890625 65.65234375 C-40.40373911 63.11629544 -44.0241529 60.58870401 -47.6484375 58.06640625 C-48.5652832 57.42743408 -49.48212891 56.78846191 -50.42675781 56.13012695 C-52.1932514 54.89923959 -53.96079053 53.66985106 -55.72949219 52.44213867 C-56.52258789 51.88888916 -57.31568359 51.33563965 -58.1328125 50.765625 C-58.83293457 50.27868164 -59.53305664 49.79173828 -60.25439453 49.29003906 C-63.91048688 46.58811011 -63.91048688 46.58811011 -64.36743164 43.5859375 C-64 41 -64 41 -62.38061523 39.2265625 C-61.63497314 38.69804687 -60.88933105 38.16953125 -60.12109375 37.625 C-59.29722168 37.02945313 -58.47334961 36.43390625 -57.62451172 35.8203125 C-56.75842285 35.21960938 -55.89233398 34.61890625 -55 34 C-54.18934082 33.41992188 -53.37868164 32.83984375 -52.54345703 32.2421875 C-50.06291737 30.47525487 -47.56571412 28.73463252 -45.0625 27 C-44.23298828 26.4225 -43.40347656 25.845 -42.54882812 25.25 C-40.87209823 24.0826729 -39.19485123 22.91608822 -37.51708984 21.75024414 C-31.67977366 17.69129945 -25.85551246 13.61654077 -20.078125 9.47265625 C-18.46910982 8.33542824 -16.85973599 7.19870749 -15.25 6.0625 C-14.43917969 5.47404297 -13.62835938 4.88558594 -12.79296875 4.27929688 C-5.20773723 -1.03036519 -5.20773723 -1.03036519 0 0 Z " fill="#F7F8F9" transform="translate(255,206)"/>
<path d="M0 0 C5.82005468 -0.71125504 8.55903519 0.58392918 13.20068359 4.06225586 C14.30790771 4.92862671 14.30790771 4.92862671 15.4375 5.8125 C17.04173829 7.01986583 18.64723006 8.22556776 20.25390625 9.4296875 C21.05328613 10.03522461 21.85266602 10.64076172 22.67626953 11.26464844 C26.01018935 13.75440491 29.43154905 16.10278581 32.875 18.4375 C34.16837235 19.32102406 35.46133088 20.20515414 36.75390625 21.08984375 C37.42437988 21.54858887 38.09485352 22.00733398 38.78564453 22.47998047 C43.14016423 25.46909179 47.4781834 28.48169426 51.8125 31.5 C53.1126001 32.39996704 53.1126001 32.39996704 54.43896484 33.31811523 C55.24930176 33.88344971 56.05963867 34.44878418 56.89453125 35.03125 C57.61487549 35.53205078 58.33521973 36.03285156 59.07739258 36.54882812 C63.84895526 40.15037334 63.84895526 40.15037334 64.4375 43.4609375 C63.85318304 46.85206269 62.73634751 47.58174051 60 49.625 C59.07960938 50.3159375 58.15921875 51.006875 57.2109375 51.71875 C52.33974331 55.17954976 47.43155913 58.58053631 42.48828125 61.9375 C37.56311761 65.28612787 32.68797957 68.70461968 27.8125 72.125 C26.9663916 72.71563232 26.1202832 73.30626465 25.24853516 73.91479492 C21.4691124 76.5543626 17.70218121 79.20530824 13.98046875 81.92578125 C13.38451904 82.35552246 12.78856934 82.78526367 12.17456055 83.22802734 C10.62053639 84.35044106 9.0754939 85.48526172 7.53125 86.62109375 C5 88 5 88 2.78125 87.84765625 C1 87 1 87 -1 85 C-1.53125 82.19921875 -1.53125 82.19921875 -1 79 C1.15960915 76.93037456 3.03847914 75.43885116 5.5 73.8125 C6.17562988 73.34255615 6.85125977 72.8726123 7.54736328 72.38842773 C9.68593325 70.90672187 11.84190364 69.45307258 14 68 C15.32170591 67.09056343 16.64205616 66.179153 17.9609375 65.265625 C20.58284814 63.45246943 23.21080424 61.64865247 25.84375 59.8515625 C30.37903325 56.74881824 34.88128949 53.60007635 39.375 50.4375 C40.10702637 49.92453369 40.83905273 49.41156738 41.59326172 48.88305664 C42.27146973 48.40473389 42.94967773 47.92641113 43.6484375 47.43359375 C44.24833496 47.01134521 44.84823242 46.58909668 45.46630859 46.15405273 C47.15047509 44.94276477 47.15047509 44.94276477 49 43 C48.29617188 42.53851563 47.59234375 42.07703125 46.8671875 41.6015625 C40.72944308 37.54712558 34.6924365 33.38183356 28.72631836 29.078125 C22.7210488 24.76370724 16.60935762 20.60786123 10.48413086 16.46606445 C1.74559815 10.53271877 1.74559815 10.53271877 -1 8 C-1.38172649 4.81894588 -1.43735246 2.87470493 0 0 Z " fill="#F8F8F9" transform="translate(338,206)"/>
<path d="M0 0 C1.010625 0.0825 2.02125 0.165 3.0625 0.25 C5.0625 3.25 5.0625 3.25 4.82641602 6.05053711 C4.0479778 9.31082243 3.04525317 12.31425312 1.83984375 15.44140625 C1.38762451 16.62323486 0.93540527 17.80506348 0.46948242 19.02270508 C-0.02026247 20.28600207 -0.51009175 21.54926635 -1 22.8125 C-1.50144902 24.11787006 -2.00233909 25.42345497 -2.50268555 26.72924805 C-3.50616487 29.34597178 -4.51248229 31.96157282 -5.52148438 34.57617188 C-7.4448669 39.56635467 -9.34834798 44.56400648 -11.25 49.5625 C-11.57444092 50.41312012 -11.89888184 51.26374023 -12.2331543 52.14013672 C-14.11129729 57.06585979 -15.96984398 61.99840872 -17.8125 66.9375 C-21.29654402 76.26993577 -24.89052909 85.5603556 -28.47265625 94.85546875 C-28.87645508 95.90355713 -29.28025391 96.95164551 -29.69628906 98.03149414 C-30.54581294 100.23434096 -31.39679492 102.43662587 -32.24902344 104.63842773 C-34.08636239 109.3940757 -35.91993681 114.14711576 -37.6328125 118.94921875 C-37.99439453 119.9556543 -37.99439453 119.9556543 -38.36328125 120.98242188 C-38.84394375 122.32639718 -39.31751961 123.67292143 -39.78515625 125.02148438 C-41.09577158 128.63098985 -41.64852645 130.05735097 -44.9375 132.25 C-47.5 132.0625 -47.5 132.0625 -49.9375 131.25 C-52.09707656 128.01063516 -52.1366621 127.01370839 -51.47998047 123.31420898 C-50.87165601 120.99945502 -50.04570123 118.8726781 -49.1328125 116.66015625 C-46.98550775 111.38655739 -44.95137166 106.07574655 -42.9375 100.75 C-40.96920998 95.54479554 -38.9875823 90.34872287 -36.90625 85.1875 C-34.98455489 80.40953541 -33.19539759 75.59023858 -31.4375 70.75 C-29.72115262 66.02416681 -27.97998676 61.31728133 -26.09375 56.65625 C-23.2375425 49.57351578 -20.60364795 42.40580944 -17.9375 35.25 C-4.9611916 0.42222907 -4.9611916 0.42222907 0 0 Z " fill="#F7F7F9" transform="translate(319.9375,183.75)"/>
<path d="M0 0 C1.58884152 -0.00230661 3.17768197 -0.00548448 4.7665202 -0.00945449 C9.11669717 -0.0177831 13.46678608 -0.01368606 17.81696332 -0.00748205 C22.51427304 -0.00295084 27.21156778 -0.00994452 31.90887451 -0.01544189 C41.10324368 -0.02432934 50.29758017 -0.02241707 59.49195061 -0.01661661 C66.96214732 -0.01209896 74.43233489 -0.01148767 81.90253258 -0.01366425 C83.4975792 -0.01412394 83.4975792 -0.01412394 85.12484899 -0.01459293 C87.28502026 -0.01523238 89.44519153 -0.0158808 91.6053628 -0.01653811 C111.85345395 -0.02223915 132.10152699 -0.01568634 152.34961518 -0.00493738 C169.73196178 0.00400437 187.11428168 0.00244051 204.49662781 -0.0067749 C224.68026471 -0.01747043 244.86388576 -0.02169664 265.04752511 -0.01555037 C267.19819939 -0.01491327 269.34887367 -0.01428453 271.49954796 -0.01366425 C273.08684887 -0.01320142 273.08684887 -0.01320142 274.70621646 -0.01272924 C282.17195937 -0.01100063 289.63769225 -0.01392085 297.10343361 -0.01862335 C306.1947399 -0.02422392 315.28601164 -0.02273286 324.37731395 -0.01206186 C329.01777699 -0.00679503 333.65818236 -0.00476568 338.29864502 -0.01136017 C342.54278905 -0.01730044 346.78682171 -0.01407648 351.03095558 -0.00340506 C352.56977738 -0.00116293 354.10860852 -0.00232544 355.64742438 -0.00715664 C357.7325447 -0.01320312 359.81727915 -0.00703618 361.90237904 0.002285 C363.06248236 0.00260971 364.22258567 0.00293441 365.41784364 0.00326896 C368.28382732 0.24693828 369.94311058 0.75943008 372.36650085 2.25396729 C371.14998065 2.25657166 371.14998065 2.25657166 369.90888429 2.25922865 C321.87683275 2.362183 273.84479514 2.47027951 225.81277038 2.58508423 C220.04975615 2.59885435 214.28674182 2.61258136 208.52372742 2.62628174 C207.37638059 2.62901004 206.22903376 2.63173835 205.04691884 2.63454933 C186.45189659 2.67866401 167.85686826 2.71928397 149.26183537 2.7586199 C130.19171745 2.79903832 111.12161085 2.84319496 92.05150962 2.89084584 C80.27751684 2.92014722 68.50352493 2.94650795 56.72951743 2.96914626 C48.66343739 2.98493409 40.5973712 3.00434212 32.53130654 3.0266357 C27.87269871 3.03940338 23.21410156 3.05053783 18.55548096 3.0573864 C14.29434551 3.06368574 10.03324689 3.07450912 5.77213165 3.08900059 C4.22698723 3.0934443 2.68183688 3.09619746 1.13668635 3.09712928 C-0.9569978 3.09863402 -3.0505747 3.10618862 -5.14423752 3.11530209 C-6.30921949 3.11796013 -7.47420146 3.12061817 -8.67448592 3.12335676 C-11.5460944 3.15131664 -11.5460944 3.15131664 -13.914078 3.82513386 C-15.63349915 4.25396729 -15.63349915 4.25396729 -17.63349915 3.25396729 C-19.65530444 3.85125098 -21.65197138 4.53425056 -23.63349915 5.25396729 C-24.87486633 5.65615479 -26.11623352 6.05834229 -27.3952179 6.47271729 C-28.70382779 6.89975114 -30.01242135 7.32683507 -31.32099915 7.75396729 C-31.9842218 7.9666626 -32.64744446 8.17935791 -33.33076477 8.39849854 C-36.44562831 9.42110227 -38.88517312 10.42174993 -41.63349915 12.25396729 C-42.95349915 12.25396729 -44.27349915 12.25396729 -45.63349915 12.25396729 C-45.96349915 13.24396729 -46.29349915 14.23396729 -46.63349915 15.25396729 C-48.61349915 15.58396729 -50.59349915 15.91396729 -52.63349915 16.25396729 C-52.63349915 15.59396729 -52.63349915 14.93396729 -52.63349915 14.25396729 C-43.54495159 9.07487794 -34.86648099 4.78093835 -24.63349915 2.25396729 C-23.40503675 1.91293095 -22.17657434 1.57189461 -20.91088581 1.22052383 C-14.02076149 -0.28955178 -7.01447018 -0.02219657 0 0 Z " fill="#0467FE" transform="translate(135.6334991455078,39.74603271484375)"/>
<path d="M0 0 C3.3 0 6.6 0 10 0 C3.35560004 8.37772169 -11.00173714 8.78722491 -21 10 C-26.5366558 10.44530125 -32.07848836 10.39569887 -37.6288147 10.36076355 C-39.2159002 10.36207625 -40.80298505 10.36471116 -42.3900665 10.36853105 C-46.69348385 10.37515682 -50.99667206 10.36335432 -55.30006027 10.34819686 C-59.96236339 10.33512479 -64.62465573 10.33963378 -69.28697205 10.34190369 C-77.34560786 10.34346943 -85.40417027 10.33413382 -93.46278763 10.31719017 C-105.11388699 10.29270922 -116.7649512 10.28498564 -128.41607349 10.2812262 C-147.32362635 10.27467591 -166.23114018 10.25475354 -185.13867188 10.22631836 C-203.49511521 10.19874083 -221.85154791 10.17752537 -240.20800781 10.16479492 C-241.3413241 10.16400675 -242.4746404 10.16321858 -243.64229961 10.16240653 C-249.32835927 10.15849114 -255.01441901 10.15470008 -260.70047879 10.15097082 C-307.80034622 10.11991926 -354.90017109 10.06712244 -402 10 C-402 9.67 -402 9.34 -402 9 C-394.29875639 7.76257959 -386.62893653 7.84967335 -378.84620667 7.84851074 C-377.29733847 7.84465704 -375.74847131 7.84036889 -374.19960541 7.83568525 C-369.95542288 7.82408486 -365.71125108 7.81857057 -361.46705592 7.81405044 C-356.88566783 7.80808661 -352.3042939 7.79642291 -347.72291565 7.78541565 C-339.78909746 7.76708863 -331.85527893 7.75223445 -323.92144966 7.73963928 C-312.44941436 7.72133501 -300.97739935 7.69667175 -289.50538015 7.67026538 C-270.89071895 7.62749791 -252.27605217 7.58837378 -233.66137695 7.55224609 C-232.54767335 7.55008329 -231.43396975 7.54792049 -230.28651755 7.54569215 C-221.24594073 7.52816349 -212.20536356 7.51081291 -203.16478634 7.49348927 C-195.25186587 7.47832271 -187.33894553 7.4630915 -179.42602539 7.44775391 C-177.75432166 7.4445156 -177.75432166 7.4445156 -176.04884613 7.44121188 C-157.49490624 7.40515025 -138.94097669 7.36520538 -120.38705105 7.32245111 C-108.93650273 7.2962545 -97.48595762 7.27360547 -86.03539365 7.25546753 C-78.20021875 7.24283542 -70.36505614 7.22672264 -62.52989388 7.20781839 C-58.00324333 7.19702462 -53.47660475 7.18791907 -48.94994354 7.18312263 C-44.81326392 7.17871428 -40.67662036 7.16980159 -36.53995787 7.15717942 C-35.03682776 7.15341992 -33.53369226 7.15138125 -32.03055746 7.15115923 C-30.00089796 7.15062406 -27.97124334 7.14345701 -25.94159794 7.13587189 C-24.81019101 7.13375592 -23.67878409 7.13163995 -22.5130921 7.12945986 C-20.06117332 7.28443753 -20.06117332 7.28443753 -19 6 C-17.14712498 5.92773498 -15.29166122 5.9161878 -13.4375 5.9375 C-12.42558594 5.94652344 -11.41367187 5.95554687 -10.37109375 5.96484375 C-9.58863281 5.97644531 -8.80617188 5.98804688 -8 6 C-8 5.34 -8 4.68 -8 4 C-8.66 4 -9.32 4 -10 4 C-10 3.34 -10 2.68 -10 2 C-8.68 2 -7.36 2 -6 2 C-6 2.66 -6 3.32 -6 4 C-4.02 4 -2.04 4 0 4 C0 2.68 0 1.36 0 0 Z " fill="#DB11FE" transform="translate(522,576)"/>
<path d="M0 0 C0.33 0 0.66 0 1 0 C1.62120866 31.33483338 2.19959046 62.65815726 2 94 C2.33 94 2.66 94 3 94 C3.04254356 95.99954746 3.04080783 98.00041636 3 100 C2.505 100.495 2.505 100.495 2 101 C1.9008243 103.14394519 1.8702985 105.29126732 1.875 107.4375 C1.87242188 108.61183594 1.86984375 109.78617187 1.8671875 110.99609375 C1.79234454 113.9240809 1.79234454 113.9240809 3 116 C3.39227838 118.70872518 3.74569498 121.40751693 4.0625 124.125 C4.15337891 124.87910156 4.24425781 125.63320313 4.33789062 126.41015625 C4.56190852 128.27304188 4.78138573 130.13647252 5 132 C5.66 132 6.32 132 7 132 C7.2475 133.155 7.495 134.31 7.75 135.5 C8.71813565 139.44269737 10.25584873 142.78261337 12.1953125 146.3359375 C13 148 13 148 13 150 C13.66 150 14.32 150 15 150 C15 151.32 15 152.64 15 154 C12 153 12 153 10.28125 150.12109375 C9.67716236 148.89828198 9.08380704 147.67012315 8.5 146.4375 C8.20480469 145.84130859 7.90960938 145.24511719 7.60546875 144.63085938 C4.1312467 137.4911035 1.59804667 130.46730819 0.33300781 122.61523438 C0.20653492 121.83688988 0.08006203 121.05854538 -0.05024338 120.25661469 C-1.31084748 111.88230541 -1.39873758 103.60709099 -1.328125 95.15625 C-1.32504717 93.49222996 -1.3231865 91.82820729 -1.32244873 90.16418457 C-1.31788927 86.69512854 -1.30365843 83.22631021 -1.28125 79.75732422 C-1.25332315 75.42394056 -1.24214274 71.09074311 -1.23744965 66.75727844 C-1.21076769 44.49048803 -0.78859005 22.25259732 0 0 Z " fill="#A422FB" transform="translate(41,388)"/>
<path d="M0 0 C0.66 0.33 1.32 0.66 2 1 C0.84826645 3.46800047 -0.04783565 5.04783565 -2 7 C-4.56312118 12.47666909 -6.43739501 18.1662747 -8 24 C-8.76488445 26.5257122 -9.53890184 29.04845881 -10.31640625 31.5703125 C-11.56090531 35.99361772 -12.1326881 40.11154714 -12.20532227 44.70825195 C-12.22526749 45.82903641 -12.24521271 46.94982086 -12.26576233 48.10456848 C-12.28247482 49.3036937 -12.29918732 50.50281891 -12.31640625 51.73828125 C-12.33718735 52.97418503 -12.35796844 54.21008881 -12.37937927 55.48344421 C-12.43359931 58.75652126 -12.48387578 62.0296274 -12.53222656 65.30279541 C-12.5826157 68.6478826 -12.63828816 71.99287724 -12.69335938 75.33789062 C-12.80035943 81.89185771 -12.90215892 88.44589013 -13 95 C-13.66 94.67 -14.32 94.34 -15 94 C-15.10245067 86.31782587 -15.17190095 78.63583153 -15.21972656 70.953125 C-15.23968999 68.3462872 -15.26687042 65.73949329 -15.30175781 63.1328125 C-15.611392 39.38204917 -13.12020078 20.37914348 0 0 Z " fill="#2E5BFF" transform="translate(55,82)"/>
<path d="M0 0 C-2.99369715 1.9957981 -5.04947143 2.69532769 -8.5 3.5625 C-9.93859375 3.93568359 -9.93859375 3.93568359 -11.40625 4.31640625 C-20.36713039 6.02092154 -29.40230189 6.18191859 -38.5 6.1875 C-39.55058594 6.19974609 -40.60117187 6.21199219 -41.68359375 6.22460938 C-48.66632269 6.23755634 -55.17984248 5.49423759 -62 4 C-62 3.34 -62 2.68 -62 2 C-54.25 1.875 -54.25 1.875 -52 3 C-49.73475603 3.09791855 -47.46657716 3.13077704 -45.19921875 3.1328125 C-44.18913506 3.13424759 -44.18913506 3.13424759 -43.15864563 3.13571167 C-41.73214627 3.13639258 -40.30564381 3.13454447 -38.87915039 3.13037109 C-36.70647105 3.12504649 -34.5340008 3.13030605 -32.36132812 3.13671875 C-30.97395788 3.13605746 -29.58658776 3.13477526 -28.19921875 3.1328125 C-26.93940186 3.13168457 -25.67958496 3.13055664 -24.3815918 3.12939453 C-20.350991 2.97516607 -17.05582983 2.41742109 -13.3125 0.9375 C-8.83816119 -0.32882231 -4.61828257 -0.16428673 0 0 Z " fill="#7A3FE5" transform="translate(338,372)"/>
<path d="M0 0 C0 3.64478912 -0.85802506 5.09303401 -3 8 C-3.95410767 8.23106445 -3.95410767 8.23106445 -4.92749023 8.46679688 C-7.43422769 9.11171555 -8.22984468 9.97051235 -9.91015625 11.90625 C-10.42513672 12.48503906 -10.94011719 13.06382812 -11.47070312 13.66015625 C-11.99599609 14.26730469 -12.52128906 14.87445313 -13.0625 15.5 C-14.11058688 16.70255523 -15.16377834 17.90068556 -16.22265625 19.09375 C-16.68422119 19.62677734 -17.14578613 20.15980469 -17.62133789 20.70898438 C-19 22 -19 22 -22 23 C-23.6542545 24.91893522 -24.85882019 26.67730329 -25.875 29 C-27 31 -27 31 -29.5625 32.9375 C-32.21404941 34.79834959 -32.21404941 34.79834959 -32.8125 37.75 C-32.874375 38.4925 -32.93625 39.235 -33 40 C-34.32 39.67 -35.64 39.34 -37 39 C-27.0682456 23.9837297 -15.13921561 9.97811938 0 0 Z " fill="#395EF1" transform="translate(221,128)"/>
<path d="M0 0 C0.66 0 1.32 0 2 0 C2.30180176 0.57967529 2.60360352 1.15935059 2.91455078 1.7565918 C4.30454943 4.40755185 5.71450621 7.04739181 7.125 9.6875 C7.599375 10.59951172 8.07375 11.51152344 8.5625 12.45117188 C12.05592424 18.94233179 15.74871551 24.38616489 23 27 C25.0742625 27.28480806 27.16071439 27.48874224 29.25 27.625 C30.86648438 27.73714844 30.86648438 27.73714844 32.515625 27.8515625 C33.74539063 27.92503906 33.74539063 27.92503906 35 28 C34.505 29.485 34.505 29.485 34 31 C29.33333333 31 24.66666667 31 20 31 C20 30.01 20 29.02 20 28 C18.02 27.67 16.04 27.34 14 27 C14 26.34 14 25.68 14 25 C13.34 25 12.68 25 12 25 C12 24.34 12 23.68 12 23 C11.34 23 10.68 23 10 23 C9.5875 22.01 9.175 21.02 8.75 20 C7.2635768 16.50086021 5.55977072 13.14938336 3.76953125 9.796875 C3 8 3 8 3 5 C2.01 4.67 1.02 4.34 0 4 C0 2.68 0 1.36 0 0 Z " fill="#B539EE" transform="translate(406,505)"/>
<path d="M0 0 C20.9546502 -0.52609203 40.00822186 0.0459558 60 7 C60 7.33 60 7.66 60 8 C56.37 8 52.74 8 49 8 C49 7.34 49 6.68 49 6 C47.92878906 5.86722656 46.85757813 5.73445313 45.75390625 5.59765625 C44.35674231 5.4194944 42.95960841 5.24109681 41.5625 5.0625 C40.85544922 4.97548828 40.14839844 4.88847656 39.41992188 4.79882812 C34.11328125 4.11328125 34.11328125 4.11328125 33 3 C26.00877988 1.79838404 19.07688319 1.88480843 12 1.9375 C10.84371094 1.94201172 9.68742187 1.94652344 8.49609375 1.95117188 C5.66400775 1.96287471 2.83203189 1.97927004 0 2 C0 1.34 0 0.68 0 0 Z " fill="#225EF7" transform="translate(287,104)"/>
<path d="M0 0 C0.66 0.33 1.32 0.66 2 1 C0.84826645 3.46800047 -0.04783565 5.04783565 -2 7 C-4.56312118 12.47666909 -6.43739501 18.1662747 -8 24 C-8.76488445 26.5257122 -9.53890184 29.04845881 -10.31640625 31.5703125 C-11.65166847 36.31621594 -12.33030463 41.12079084 -13 46 C-13.33 46 -13.66 46 -14 46 C-14.92051535 28.9875126 -9.09707848 14.13017001 0 0 Z " fill="#2D5FF1" transform="translate(55,82)"/>
<path d="M0 0 C0 0.33 0 0.66 0 1 C-1.50240234 1.27263672 -1.50240234 1.27263672 -3.03515625 1.55078125 C-4.37768391 1.80426549 -5.72012743 2.05819568 -7.0625 2.3125 C-7.71927734 2.43044922 -8.37605469 2.54839844 -9.05273438 2.66992188 C-13.68568295 3.55999574 -17.68463906 5.0357321 -22 7 C-23.8681441 7.72622224 -25.74276805 8.43611395 -27.625 9.125 C-28.52476563 9.45757812 -29.42453125 9.79015625 -30.3515625 10.1328125 C-32.8915551 10.96449149 -35.37069223 11.5348878 -38 12 C-38.33 12.99 -38.66 13.98 -39 15 C-40.98 15.33 -42.96 15.66 -45 16 C-45 15.34 -45 14.68 -45 14 C-35.89385583 8.81088327 -27.23382698 4.58911735 -17 2 C-15.74896484 1.66355469 -15.74896484 1.66355469 -14.47265625 1.3203125 C-9.54726396 0.0910693 -5.07145468 -0.18441653 0 0 Z " fill="#3876EF" transform="translate(128,40)"/>
<path d="M0 0 C3.3 0 6.6 0 10 0 C4.76434763 6.60147473 -5.04495787 7.92198027 -13 9 C-16.02470838 9.13911863 -18.96973008 9.09775064 -22 9 C-20.85546875 7.51171875 -20.85546875 7.51171875 -19 6 C-16.30078125 5.70703125 -16.30078125 5.70703125 -13.3125 5.8125 C-12.31863281 5.83957031 -11.32476562 5.86664062 -10.30078125 5.89453125 C-9.16189453 5.94673828 -9.16189453 5.94673828 -8 6 C-8 5.34 -8 4.68 -8 4 C-8.66 4 -9.32 4 -10 4 C-10 3.34 -10 2.68 -10 2 C-8.68 2 -7.36 2 -6 2 C-6 2.66 -6 3.32 -6 4 C-4.02 4 -2.04 4 0 4 C0 2.68 0 1.36 0 0 Z " fill="#C528F1" transform="translate(522,576)"/>
<path d="M0 0 C0.66 0 1.32 0 2 0 C-0.35838558 5.26101398 -2.73240409 6.89296164 -8 9 C-8.515625 9.515625 -9.03125 10.03125 -9.5625 10.5625 C-11.33592353 12.33592353 -12.55873855 12.55613428 -15 13 C-16.11375 13.2784375 -16.11375 13.2784375 -17.25 13.5625 C-17.8275 13.706875 -18.405 13.85125 -19 14 C-19 14.66 -19 15.32 -19 16 C-20.32 15.34 -21.64 14.68 -23 14 C-20.75693337 11.53146357 -18.54660817 10.07293274 -15.5859375 8.5546875 C-14.74289062 8.11769531 -13.89984375 7.68070313 -13.03125 7.23046875 C-11.71640625 6.55951172 -11.71640625 6.55951172 -10.375 5.875 C-8.63201951 4.97810188 -6.88978997 4.07974238 -5.1484375 3.1796875 C-4.37677246 2.78507324 -3.60510742 2.39045898 -2.81005859 1.98388672 C-1.0357085 1.13022961 -1.0357085 1.13022961 0 0 Z " fill="#B334F5" transform="translate(465,520)"/>
<path d="M0 0 C1.32 0 2.64 0 4 0 C4 1.32 4 2.64 4 4 C4.66 4 5.32 4 6 4 C6 4.66 6 5.32 6 6 C6.66 6 7.32 6 8 6 C8 6.66 8 7.32 8 8 C8.66 8 9.32 8 10 8 C10 8.66 10 9.32 10 10 C10.66 10 11.32 10 12 10 C13.35278115 11.98689731 14.68568305 13.98745218 16 16 C16.66 16.33 17.32 16.66 18 17 C18 17.66 18 18.32 18 19 C19.32 19.33 20.64 19.66 22 20 C22 20.66 22 21.32 22 22 C22.66 22 23.32 22 24 22 C24 22.66 24 23.32 24 24 C19.52628555 22.56611716 16.49210269 20.10320287 13.125 16.9375 C12.60196289 16.451604 12.07892578 15.96570801 11.54003906 15.46508789 C7.22906664 11.38006161 3.15754797 7.05874762 0 2 C0 1.34 0 0.68 0 0 Z " fill="#C134F2" transform="translate(56,544)"/>
<path d="M0 0 C0.66 0.33 1.32 0.66 2 1 C-1.36726343 5.22354348 -4.26524152 8.29442373 -9 11 C-9.33 11.99 -9.66 12.98 -10 14 C-10.66 14 -11.32 14 -12 14 C-12 14.66 -12 15.32 -12 16 C-12.7425 16.4125 -13.485 16.825 -14.25 17.25 C-17.54973237 19.34982969 -18.88464934 21.75646232 -21 25 C-21.99 25.33 -22.98 25.66 -24 26 C-19.03583562 15.02792386 -9.17523345 7.33167804 0 0 Z " fill="#256AF3" transform="translate(80,56)"/>
<path d="M0 0 C0.98484375 0.01804687 1.9696875 0.03609375 2.984375 0.0546875 C4.10585938 0.08949219 4.10585938 0.08949219 5.25 0.125 C5.25 0.455 5.25 0.785 5.25 1.125 C3.75726563 1.43630859 3.75726563 1.43630859 2.234375 1.75390625 C-8.72348845 4.13645467 -19.12944624 7.51928031 -29.65380859 11.36816406 C-32.33645716 12.33674205 -35.03868805 13.24020999 -37.75 14.125 C-37.75 12.805 -37.75 11.485 -37.75 10.125 C-37.09 10.125 -36.43 10.125 -35.75 10.125 C-35.75 10.785 -35.75 11.445 -35.75 12.125 C-35.234375 11.485625 -34.71875 10.84625 -34.1875 10.1875 C-31.05697579 7.5385949 -28.775149 7.61079384 -24.75 7.125 C-23.80125 6.650625 -22.8525 6.17625 -21.875 5.6875 C-18.53151817 4.01575909 -15.54782188 3.32459877 -11.8984375 2.65234375 C-9.71977185 2.21568011 -9.71977185 2.21568011 -7.8359375 1.07421875 C-5.11766086 -0.16274983 -2.97123524 -0.0707437 0 0 Z " fill="#2C62EC" transform="translate(271.75,93.875)"/>
<path d="M0 0 C1.4540625 0.0309375 1.4540625 0.0309375 2.9375 0.0625 C2.9375 1.0525 2.9375 2.0425 2.9375 3.0625 C4.2575 2.7325 5.5775 2.4025 6.9375 2.0625 C6.9375 2.7225 6.9375 3.3825 6.9375 4.0625 C8.2575 4.0625 9.5775 4.0625 10.9375 4.0625 C10.9375 3.4025 10.9375 2.7425 10.9375 2.0625 C11.5975 2.0625 12.2575 2.0625 12.9375 2.0625 C13.2675 3.3825 13.5975 4.7025 13.9375 6.0625 C15.030625 6.02125 16.12375 5.98 17.25 5.9375 C20.9375 6.0625 20.9375 6.0625 23.9375 8.0625 C15.35881452 8.69277077 3.8548497 8.2845687 -2.96875 2.42578125 C-3.3296875 1.97589844 -3.690625 1.52601563 -4.0625 1.0625 C-3.0625 0.0625 -3.0625 0.0625 0 0 Z " fill="#C92AF4" transform="translate(99.0625,575.9375)"/>
<path d="M0 0 C0.33 0 0.66 0 1 0 C1.33 12.21 1.66 24.42 2 37 C2.33 37 2.66 37 3 37 C3.04254356 38.99954746 3.04080783 41.00041636 3 43 C2.505 43.495 2.505 43.495 2 44 C1.71681146 46.84087552 1.55149787 49.68165215 1.37890625 52.53125 C1.25386719 53.3459375 1.12882812 54.160625 1 55 C0.01 55.495 0.01 55.495 -1 56 C-0.67 37.52 -0.34 19.04 0 0 Z " fill="#B124FE" transform="translate(41,445)"/>
<path d="M0 0 C1.32 0 2.64 0 4 0 C3 3 3 3 1.16162109 4.05908203 C0.37352051 4.37216309 -0.41458008 4.68524414 -1.2265625 5.0078125 C-2.09410156 5.35457031 -2.96164062 5.70132812 -3.85546875 6.05859375 C-4.76941406 6.41050781 -5.68335938 6.76242187 -6.625 7.125 C-7.51574219 7.48464844 -8.40648437 7.84429687 -9.32421875 8.21484375 C-14.2483354 10.15113115 -18.7257411 11.52314919 -24 12 C-24 11.34 -24 10.68 -24 10 C-22.06441401 9.32779649 -20.12645628 8.66241923 -18.1875 8 C-17.10855469 7.62875 -16.02960938 7.2575 -14.91796875 6.875 C-12 6 -12 6 -9 6 C-9 5.34 -9 4.68 -9 4 C-8.01 4 -7.02 4 -6 4 C-6 3.34 -6 2.68 -6 2 C-4.02 2 -2.04 2 0 2 C0 1.34 0 0.68 0 0 Z " fill="#7F3AF2" transform="translate(362,360)"/>
<path d="M0 0 C7.75 -0.125 7.75 -0.125 10 1 C11.37548156 1.08308638 12.75485796 1.10736016 14.1328125 1.09765625 C14.93847656 1.09443359 15.74414062 1.09121094 16.57421875 1.08789062 C17.41597656 1.07951172 18.25773437 1.07113281 19.125 1.0625 C20.39923828 1.05573242 20.39923828 1.05573242 21.69921875 1.04882812 C23.79950909 1.03702874 25.8997633 1.01909306 28 1 C28 1.33 28 1.66 28 2 C30.64 2.33 33.28 2.66 36 3 C36 3.33 36 3.66 36 4 C32.0625648 4.05893685 28.12524573 4.09390669 24.1875 4.125 C22.53717773 4.15013672 22.53717773 4.15013672 20.85351562 4.17578125 C13.67463138 4.21813455 7.00873305 3.56258545 0 2 C0 1.34 0 0.68 0 0 Z " fill="#9958F6" transform="translate(276,374)"/>
<path d="M0 0 C0.66 0 1.32 0 2 0 C1.46649899 4.4539251 -0.18356448 7.01828362 -2.875 10.5625 C-3.57367187 11.49191406 -4.27234375 12.42132812 -4.9921875 13.37890625 C-5.98605469 14.67634766 -5.98605469 14.67634766 -7 16 C-7.53882813 16.77214844 -8.07765625 17.54429687 -8.6328125 18.33984375 C-9.08398438 18.88769531 -9.53515625 19.43554688 -10 20 C-10.66 20 -11.32 20 -12 20 C-10.66666667 17.33333333 -9.33333333 14.66666667 -8 12 C-8.66 12 -9.32 12 -10 12 C-10 11.34 -10 10.68 -10 10 C-9.34 10 -8.68 10 -8 10 C-8 9.34 -8 8.68 -8 8 C-7.34 8 -6.68 8 -6 8 C-6 8.66 -6 9.32 -6 10 C-5.34 10 -4.68 10 -4 10 C-4 8.68 -4 7.36 -4 6 C-3.34 6 -2.68 6 -2 6 C-2 5.34 -2 4.68 -2 4 C-2.66 4 -3.32 4 -4 4 C-4 3.34 -4 2.68 -4 2 C-2.68 2.33 -1.36 2.66 0 3 C0 2.01 0 1.02 0 0 Z " fill="#BB2AF1" transform="translate(572,536)"/>
<path d="M0 0 C5.19682003 1.46951278 8.03559303 4.75592571 11.625 8.5625 C12.75831006 9.75579381 13.89615525 10.94480118 15.0390625 12.12890625 C15.78470459 12.91890015 15.78470459 12.91890015 16.54541016 13.72485352 C18.09046866 15.24547875 18.09046866 15.24547875 21 16 C21 17.32 21 18.64 21 20 C21.66 20 22.32 20 23 20 C23.66 20.99 24.32 21.98 25 23 C24.67 23.99 24.34 24.98 24 26 C19.10544687 20.58380515 14.23075156 15.16088589 9.5078125 9.59375 C7.89126371 7.76630898 7.89126371 7.76630898 5 6 C5 5.34 5 4.68 5 4 C4.360625 3.71125 3.72125 3.4225 3.0625 3.125 C1 2 1 2 0 0 Z " fill="#3A5EEF" transform="translate(395,126)"/>
<path d="M0 0 C5.13575947 0.43708591 8.99510362 1.75263923 13.64453125 3.9453125 C17.32997981 5.59551335 21.14917253 6.79832334 25 8 C25 8.66 25 9.32 25 10 C26.98 10 28.96 10 31 10 C30.34 10.66 29.68 11.32 29 12 C23.89232489 11.68124464 19.64431221 9.72301051 15.0625 7.625 C13.69931781 7.0128002 12.3360373 6.40081929 10.97265625 5.7890625 C10.31539551 5.49161133 9.65813477 5.19416016 8.98095703 4.88769531 C6.0033874 3.55340357 3.00283133 2.27630119 0 1 C0 0.67 0 0.34 0 0 Z " fill="#7D45EA" transform="translate(233,360)"/>
<path d="M0 0 C2.97 0.495 2.97 0.495 6 1 C6 1.66 6 2.32 6 3 C6.66 3 7.32 3 8 3 C8 3.66 8 4.32 8 5 C8.66 5 9.32 5 10 5 C10 5.66 10 6.32 10 7 C10.66 7 11.32 7 12 7 C12 8.32 12 9.64 12 11 C12.66 11 13.32 11 14 11 C13.67 11.99 13.34 12.98 13 14 C7.75027653 9.89962427 3.79037089 5.47035213 0 0 Z " fill="#7A42ED" transform="translate(194,327)"/>
<path d="M0 0 C2.26793147 2.26793147 3.51564683 4.50384032 5.0625 7.3125 C5.58972656 8.25738281 6.11695313 9.20226562 6.66015625 10.17578125 C7.92349381 12.83873477 8.5719151 15.09853567 9 18 C7.68 18 6.36 18 5 18 C5 16.68 5 15.36 5 14 C4.34 14 3.68 14 3 14 C3 12.02 3 10.04 3 8 C2.34 8 1.68 8 1 8 C1 6.68 1 5.36 1 4 C0.34 4 -0.32 4 -1 4 C-0.67 2.68 -0.34 1.36 0 0 Z " fill="#9D3BF2" transform="translate(367,430)"/>
<path d="M0 0 C2.83188775 3.4505463 4.74503018 7.25962359 6.6875 11.25 C7.16799805 12.22453125 7.16799805 12.22453125 7.65820312 13.21875 C8.44247141 14.81069757 9.22174255 16.40510529 10 18 C9.34 18 8.68 18 8 18 C7.34 16.35 6.68 14.7 6 13 C5.01 13 4.02 13 3 13 C2.71125 12.195625 2.4225 11.39125 2.125 10.5625 C1.26737432 7.8673532 1.26737432 7.8673532 -1 7 C-1.04254356 5.00045254 -1.04080783 2.99958364 -1 1 C-0.67 0.67 -0.34 0.34 0 0 Z " fill="#9F3BEF" transform="translate(377,449)"/>
<path d="M0 0 C-0.33 0.66 -0.66 1.32 -1 2 C-3.14453125 2.5625 -3.14453125 2.5625 -5.8125 3 C-9.28256924 3.57407349 -11.87497907 4.42774415 -15 6 C-18.25 6.125 -18.25 6.125 -21 6 C-20.67 5.01 -20.34 4.02 -20 3 C-13.59204006 0.74328367 -6.78583175 -0.47343012 0 0 Z " fill="#2A64F3" transform="translate(279,106)"/>
<path d="M0 0 C0.66 0 1.32 0 2 0 C2 0.66 2 1.32 2 2 C2.99 1.67 3.98 1.34 5 1 C3.78065514 5.03321763 2.44045073 8.54269479 0 12 C-0.66 12 -1.32 12 -2 12 C-3.12377697 8.69564916 -2.89554742 6.9493138 -1.5625 3.75 C-1.27503906 3.04359375 -0.98757813 2.3371875 -0.69140625 1.609375 C-0.46324219 1.07828125 -0.23507812 0.5471875 0 0 Z " fill="#4B57F2" transform="translate(323,193)"/>
<path d="M0 0 C2.95889707 2.5250412 4.19662795 5.25321087 5.6875 8.8125 C6.12449219 9.82957031 6.56148437 10.84664062 7.01171875 11.89453125 C8.03675987 15.11551027 8.18564726 17.64329684 8 21 C7.34 21 6.68 21 6 21 C5.73445312 20.01257813 5.46890625 19.02515625 5.1953125 18.0078125 C4.83889247 16.71344502 4.48210234 15.41917941 4.125 14.125 C3.95097656 13.47402344 3.77695312 12.82304688 3.59765625 12.15234375 C2.50470421 8.1931563 2.50470421 8.1931563 0 5 C-0.125 2.375 -0.125 2.375 0 0 Z " fill="#2B69F3" transform="translate(574,89)"/>
<path d="M0 0 C8.38011029 -0.15392039 16.64895793 0.31728707 25 1 C25 1.33 25 1.66 25 2 C18.07 2 11.14 2 4 2 C4 2.66 4 3.32 4 4 C2.68 4 1.36 4 0 4 C0 2.68 0 1.36 0 0 Z " fill="#872FF9" transform="translate(282,388)"/>
<path d="M0 0 C0.66 0.33 1.32 0.66 2 1 C0.84826645 3.46800047 -0.04783565 5.04783565 -2 7 C-2.92755425 9.18677942 -3.79573848 11.3990875 -4.625 13.625 C-5.07101563 14.81351563 -5.51703125 16.00203125 -5.9765625 17.2265625 C-6.31429687 18.14179687 -6.65203125 19.05703125 -7 20 C-7.66 19.67 -8.32 19.34 -9 19 C-7.05709049 11.94417074 -3.95742848 6.1346545 0 0 Z " fill="#2D6BF1" transform="translate(55,82)"/>
<path d="M0 0 C1.32 0.33 2.64 0.66 4 1 C2.27898082 2.32316536 0.54781907 3.63314524 -1.1875 4.9375 C-2.63189453 6.03384766 -2.63189453 6.03384766 -4.10546875 7.15234375 C-6.88959799 8.92952746 -8.75667585 9.62645444 -12 10 C-12 9.34 -12 8.68 -12 8 C-10.68 8 -9.36 8 -8 8 C-8 7.34 -8 6.68 -8 6 C-8.66 6 -9.32 6 -10 6 C-10 5.34 -10 4.68 -10 4 C-7.36 4 -4.72 4 -2 4 C-2 3.34 -2 2.68 -2 2 C-1.34 2 -0.68 2 0 2 C0 1.34 0 0.68 0 0 Z " fill="#C527F1" transform="translate(548,564)"/>
<path d="M0 0 C0.33 0 0.66 0 1 0 C1.30921862 8.38326033 0.39885839 15.23118083 -3 23 C-3.66 23 -4.32 23 -5 23 C-4.58645985 20.51875908 -4.23472818 18.41830936 -2.99609375 16.2109375 C-1.72560716 13.3909555 -1.61534127 10.95505951 -1.4375 7.875 C-1.09722222 2.19444444 -1.09722222 2.19444444 0 0 Z " fill="#AD2BF4" transform="translate(583,503)"/>
<path d="M0 0 C1.03060547 0.32484375 1.03060547 0.32484375 2.08203125 0.65625 C2.98308594 0.9346875 3.88414062 1.213125 4.8125 1.5 C5.70582031 1.7784375 6.59914063 2.056875 7.51953125 2.34375 C10.05573395 3.12788351 10.05573395 3.12788351 13 3 C13 3.66 13 4.32 13 5 C14.32 5.33 15.64 5.66 17 6 C17 5.34 17 4.68 17 4 C17.99 4.33 18.98 4.66 20 5 C20 5.99 20 6.98 20 8 C15.13451192 7.34065816 10.74092364 6.03428754 6.125 4.4375 C5.43664062 4.20353516 4.74828125 3.96957031 4.0390625 3.72851562 C2.35796355 3.15647501 0.67877837 2.57881544 -1 2 C-0.67 1.34 -0.34 0.68 0 0 Z " fill="#3068ED" transform="translate(339,96)"/>
<path d="M0 0 C0.66 0.33 1.32 0.66 2 1 C1.690625 1.5775 1.38125 2.155 1.0625 2.75 C0.07416636 4.84294184 -0.5168613 6.74535275 -1 9 C-1.99 9 -2.98 9 -4 9 C-4.66 13.62 -5.32 18.24 -6 23 C-6.33 23 -6.66 23 -7 23 C-7.63568793 14.65129852 -7.05713069 8.83478875 -2 2 C-1.34 1.34 -0.68 0.68 0 0 Z " fill="#E4DDEE" transform="translate(373,405)"/>
<path d="M0 0 C1.8125 0.125 1.8125 0.125 4 1 C5.95320589 4.20883825 7 6.2205439 7 10 C5.02 9.34 3.04 8.68 1 8 C0.67 5.36 0.34 2.72 0 0 Z " fill="#AC33F6" transform="translate(399,494)"/>
<path d="M0 0 C0.66 0 1.32 0 2 0 C2.33 1.65 2.66 3.3 3 5 C3.99 5 4.98 5 6 5 C6.66 7.97 7.32 10.94 8 14 C7.01 14.495 7.01 14.495 6 15 C4.98965502 13.25595212 3.99207578 11.50450439 3 9.75 C2.1646875 8.28820312 2.1646875 8.28820312 1.3125 6.796875 C0 4 0 4 0 0 Z " fill="#A432F4" transform="translate(458,465)"/>
<path d="M0 0 C1.98 0.495 1.98 0.495 4 1 C4 1.66 4 2.32 4 3 C5.98 3 7.96 3 10 3 C10 3.66 10 4.32 10 5 C10.66 5 11.32 5 12 5 C12 5.66 12 6.32 12 7 C12.66 7 13.32 7 14 7 C14 7.66 14 8.32 14 9 C8.52067211 7.45454854 3.88570819 4.84456788 -1 2 C-0.67 1.34 -0.34 0.68 0 0 Z " fill="#3566EF" transform="translate(364,105)"/>
<path d="M0 0 C0.99 0.33 1.98 0.66 3 1 C1.47793991 3.62901288 0.15634036 5.84365964 -2 8 C-3.32 8 -4.64 8 -6 8 C-4.75237172 4.15314615 -3.6129609 1.97070595 0 0 Z " fill="#6345F4" transform="translate(350,288)"/>
<path d="M0 0 C5.85272256 0.45020943 10.08220119 3.03839227 15 6 C11.93109813 7.53445094 9.29905734 6.54984289 6 6 C6 5.34 6 4.68 6 4 C3 2.66666667 3 2.66666667 0 4 C0 2.68 0 1.36 0 0 Z " fill="#3265EF" transform="translate(352,114)"/>
<path d="M0 0 C2.56761548 2.61478952 2.9956345 3.94528576 3.29296875 7.671875 C3.27316751 9.03156035 3.23759202 10.3910934 3.1875 11.75 C3.17396484 12.44738281 3.16042969 13.14476562 3.14648438 13.86328125 C3.1112945 15.57585541 3.05749155 17.28802941 3 19 C2.67 19 2.34 19 2 19 C0.48766299 12.53205867 -0.21432579 6.64409958 0 0 Z " fill="#A731EB" transform="translate(41,500)"/>
<path d="M0 0 C0.99 0.495 0.99 0.495 2 1 C2 2.98 2 4.96 2 7 C2.66 7 3.32 7 4 7 C4 7.66 4 8.32 4 9 C3.34 9 2.68 9 2 9 C2.33 10.65 2.66 12.3 3 14 C2.01 14.66 1.02 15.32 0 16 C0 10.72 0 5.44 0 0 Z " fill="#B322FE" transform="translate(474,495)"/>
<path d="M0 0 C0.99 0.33 1.98 0.66 3 1 C-6.42857143 9 -6.42857143 9 -11 9 C-11 8.34 -11 7.68 -11 7 C-10.34 7 -9.68 7 -9 7 C-9 6.34 -9 5.68 -9 5 C-8.01 4.67 -7.02 4.34 -6 4 C-5.67 3.01 -5.34 2.02 -5 1 C-3.35 1.33 -1.7 1.66 0 2 C0 1.34 0 0.68 0 0 Z " fill="#2C5FF1" transform="translate(231,107)"/>
<path d="M0 0 C0.99 0.33 1.98 0.66 3 1 C2.67 1.94875 2.34 2.8975 2 3.875 C0.89840809 6.77062452 0.89840809 6.77062452 1 9 C0.01 9.33 -0.98 9.66 -2 10 C-2.33 10.66 -2.66 11.32 -3 12 C-3.66 12 -4.32 12 -5 12 C-3.68938409 7.76570244 -2.05643741 3.92592596 0 0 Z " fill="#495CEE" transform="translate(179,175)"/>
<path d="M0 0 C0.66 0 1.32 0 2 0 C2 1.32 2 2.64 2 4 C2.66 4 3.32 4 4 4 C4 5.32 4 6.64 4 8 C4.66 8 5.32 8 6 8 C6 9.32 6 10.64 6 12 C6.66 12 7.32 12 8 12 C7.67 12.99 7.34 13.98 7 15 C3.32217645 10.40272057 0 6.02578256 0 0 Z " fill="#A831F2" transform="translate(466,480)"/>
<path d="M0 0 C1.5 1.375 1.5 1.375 3 3 C3 3.66 3 4.32 3 5 C2.34 5 1.68 5 1 5 C1.350625 5.7425 1.70125 6.485 2.0625 7.25 C3.04509293 10.1322726 3.0326802 11.21176345 2 14 C-0.40920141 9.78389753 -1.44250802 6.86758823 -1 2 C-0.67 1.34 -0.34 0.68 0 0 Z " fill="#9146E8" transform="translate(377,417)"/>
<path d="M0 0 C0.66 0.33 1.32 0.66 2 1 C1.2884375 1.6496875 1.2884375 1.6496875 0.5625 2.3125 C-1.23686957 4.02309613 -1.23686957 4.02309613 -2 7 C-4.97 7 -7.94 7 -11 7 C-7.53252172 4.22601737 -3.93597489 2.04087587 0 0 Z " fill="#883DE9" transform="translate(394,405)"/>
<path d="M0 0 C-0.66 1.32 -1.32 2.64 -2 4 C-2.99 4 -3.98 4 -5 4 C-5 4.66 -5 5.32 -5 6 C-6.32 5.34 -7.64 4.68 -9 4 C-5.86025155 0.71753571 -4.76763047 0 0 0 Z " fill="#B92DF7" transform="translate(451,530)"/>
<path d="M0 0 C5.01202555 2.98334854 8.38748484 6.43951988 12 11 C11.01 11 10.02 11 9 11 C8.67 10.01 8.34 9.02 8 8 C7.34 8 6.68 8 6 8 C6 7.34 6 6.68 6 6 C5.38125 5.7525 4.7625 5.505 4.125 5.25 C1.64931313 3.79371361 1.04874998 2.62187494 0 0 Z " fill="#326EF2" transform="translate(552,62)"/>
<path d="M0 0 C4.31392226 0.4793247 6.16569547 1.7457985 9 5 C7.35 5.33 5.7 5.66 4 6 C4 5.34 4 4.68 4 4 C3.34 4 2.68 4 2 4 C2 3.34 2 2.68 2 2 C1.34 2 0.68 2 0 2 C0 1.34 0 0.68 0 0 Z " fill="#B827F3" transform="translate(416,526)"/>
<path d="M0 0 C1.98 0.99 3.96 1.98 6 3 C6 6 6 9 6 12 C3.25207517 8.59780735 0 4.51535412 0 0 Z " fill="#4459ED" transform="translate(430,167)"/>
<path d="M0 0 C3.09592835 3.5087188 4.74194623 6.49197399 6 11 C2.67631776 9.89210592 2.38436907 9.51563783 0.75 6.625 C0.39421875 6.01914062 0.0384375 5.41328125 -0.328125 4.7890625 C-1 3 -1 3 0 0 Z " fill="#8B33F3" transform="translate(425,403)"/>
<path d="M0 0 C3.28788824 3.11016455 5.83735988 6.01618925 8 10 C7.01 10 6.02 10 5 10 C4.67 9.01 4.34 8.02 4 7 C1.98491642 6.26676204 1.98491642 6.26676204 0 6 C0 4.02 0 2.04 0 0 Z " fill="#2B6DEC" transform="translate(564,74)"/>
<path d="M0 0 C5.15464734 0.48324819 8.81550319 3.18610761 13 6 C12.01 6.495 12.01 6.495 11 7 C9.26420441 6.00352476 7.52986519 5.00068333 5.8515625 3.91015625 C3.74557091 2.70590354 3.74557091 2.70590354 0 3 C0 2.01 0 1.02 0 0 Z " fill="#2D6FF0" transform="translate(529,48)"/>
<path d="M0 0 C1.65 0 3.3 0 5 0 C5.66 1.98 6.32 3.96 7 6 C4.36 4.68 1.72 3.36 -1 2 C-0.67 1.34 -0.34 0.68 0 0 Z " fill="#C633F0" transform="translate(81,568)"/>
<path d="M0 0 C1.32 0.66 2.64 1.32 4 2 C0.535 4.97 0.535 4.97 -3 8 C-3.33 6.68 -3.66 5.36 -4 4 C-2.68 4 -1.36 4 0 4 C0 2.68 0 1.36 0 0 Z " fill="#BF39F0" transform="translate(556,556)"/>
<path d="M0 0 C0.66 1.32 1.32 2.64 2 4 C4.64 4 7.28 4 10 4 C7.61426621 5.89213369 5.92824652 7.02391783 3 8 C0 3.375 0 3.375 0 0 Z " fill="#8043E8" transform="translate(387,388)"/>
<path d="M0 0 C0 3.19131 -0.13209062 4.45285085 -2 7 C-5.125 7.75 -5.125 7.75 -8 8 C-7.04578192 6.85073734 -6.08647955 5.70569459 -5.125 4.5625 C-4.59132813 3.92441406 -4.05765625 3.28632812 -3.5078125 2.62890625 C-2 1 -2 1 0 0 Z " fill="#3370F4" transform="translate(72,63)"/>
<path d="M0 0 C0.90105469 0.02707031 1.80210937 0.05414063 2.73046875 0.08203125 C3.76107422 0.13423828 3.76107422 0.13423828 4.8125 0.1875 C1.65009418 2.29577055 0.30592531 2.52567465 -3.375 2.8125 C-4.72658203 2.92464844 -4.72658203 2.92464844 -6.10546875 3.0390625 C-7.13607422 3.11253906 -7.13607422 3.11253906 -8.1875 3.1875 C-5.67753317 0.01043235 -3.96125134 -0.15433447 0 0 Z " fill="#8034ED" transform="translate(333.1875,371.8125)"/>
<path d="M0 0 C1.32 0 2.64 0 4 0 C4 1.32 4 2.64 4 4 C4.66 4 5.32 4 6 4 C5.67 4.99 5.34 5.98 5 7 C2.5 5.1875 2.5 5.1875 0 3 C0 2.01 0 1.02 0 0 Z " fill="#8046F4" transform="translate(202,334)"/>
<path d="M0 0 C0.33 0 0.66 0 1 0 C1 3.3 1 6.6 1 10 C-0.32 10.33 -1.64 10.66 -3 11 C-2.01 7.37 -1.02 3.74 0 0 Z " fill="#EAE9F2" transform="translate(303,216)"/>
<path d="M0 0 C1.8871875 0.0309375 1.8871875 0.0309375 3.8125 0.0625 C1.09777098 2.77722902 -1.49402069 3.20508516 -5.1875 4.0625 C-5.8475 3.7325 -6.5075 3.4025 -7.1875 3.0625 C-7.1875 2.4025 -7.1875 1.7425 -7.1875 1.0625 C-4.43671116 0.14557039 -2.82801087 -0.04636083 0 0 Z " fill="#2370F4" transform="translate(108.1875,43.9375)"/>
<path d="M0 0 C0.33 0 0.66 0 1 0 C1.44041451 5.37305699 1.44041451 5.37305699 1 8 C-1.5 10 -1.5 10 -4 11 C-2.7874262 7.27566618 -1.49140021 3.62197194 0 0 Z " fill="#EED2F7" transform="translate(579,526)"/>
<path d="M0 0 C2.97 0.495 2.97 0.495 6 1 C6 1.66 6 2.32 6 3 C7.98 3 9.96 3 12 3 C11.34 3.66 10.68 4.32 10 5 C7.0574037 4.69347955 4.65457692 4.32728846 2 3 C2 2.34 2 1.68 2 1 C1.34 0.67 0.68 0.34 0 0 Z " fill="#8747F3" transform="translate(252,367)"/>
<path d="M0 0 C2 3 2 3 2 7 C-0.5 8.75 -0.5 8.75 -3 10 C-2.01 6.7 -1.02 3.4 0 0 Z " fill="#DEE1EB" transform="translate(308,203)"/>
<path d="M0 0 C-0.33 1.32 -0.66 2.64 -1 4 C-2.32 4 -3.64 4 -5 4 C-5.66 3.34 -6.32 2.68 -7 2 C-4.35261084 0.5393715 -3.10551666 0 0 0 Z " fill="#AD30ED" transform="translate(456,527)"/>
<path d="M0 0 C0.66 0 1.32 0 2 0 C2 0.66 2 1.32 2 2 C2.66 2 3.32 2 4 2 C4 2.66 4 3.32 4 4 C4.66 4 5.32 4 6 4 C5.67 4.99 5.34 5.98 5 7 C3.0625 6.3125 3.0625 6.3125 1 5 C0.25 2.375 0.25 2.375 0 0 Z " fill="#B32BF0" transform="translate(424,512)"/>
<path d="M0 0 C2.34601486 2.13274079 3.86264449 4.02537789 5 7 C5.125 9.75 5.125 9.75 5 12 C4.67 10.68 4.34 9.36 4 8 C3.34 8 2.68 8 2 8 C-0.1519437 4.77208445 -0.20086443 3.71599191 0 0 Z " fill="#A138EA" transform="translate(458,491)"/>
<path d="M0 0 C3 3.625 3 3.625 3 7 C1.68 7 0.36 7 -1 7 C-1.04254356 5.00045254 -1.04080783 2.99958364 -1 1 C-0.67 0.67 -0.34 0.34 0 0 Z " fill="#9E34F8" transform="translate(377,449)"/>
<path d="M0 0 C3.0916909 2.52956528 3.90931332 5.22454612 5 9 C2 8 2 8 0 6 C-0.125 2.875 -0.125 2.875 0 0 Z " fill="#9441EC" transform="translate(424,428)"/>
<path d="M0 0 C0.53625 0.226875 1.0725 0.45375 1.625 0.6875 C-0.64461192 2.95711192 -2.30869336 3.7900444 -5.375 4.6875 C-6.365 4.0275 -7.355 3.3675 -8.375 2.6875 C-2.95961538 -0.38942308 -2.95961538 -0.38942308 0 0 Z " fill="#3977EE" transform="translate(100.375,46.3125)"/>
<path d="M0 0 C0.66 0.33 1.32 0.66 2 1 C2 2.32 2 3.64 2 5 C1.34 5 0.68 5 0 5 C0 5.66 0 6.32 0 7 C-1.32 7.33 -2.64 7.66 -4 8 C-2.68 5.36 -1.36 2.72 0 0 Z " fill="#EDEAF5" transform="translate(574,537)"/>
<path d="M0 0 C-0.33 1.32 -0.66 2.64 -1 4 C-3.97 3.505 -3.97 3.505 -7 3 C-7 2.34 -7 1.68 -7 1 C-3.375 -1.125 -3.375 -1.125 0 0 Z " fill="#335EF1" transform="translate(247,116)"/>
<path d="M0 0 C3.0916909 2.52956528 3.90931332 5.22454612 5 9 C4.34 9 3.68 9 3 9 C0.78252188 6.69723426 0.03239994 5.47519908 -0.1875 2.25 C-0.125625 1.5075 -0.06375 0.765 0 0 Z " fill="#3D6EEB" transform="translate(574,89)"/>
<path d="M0 0 C0.66 0 1.32 0 2 0 C2 0.66 2 1.32 2 2 C3.32 2.33 4.64 2.66 6 3 C6 3.66 6 4.32 6 5 C6.66 5 7.32 5 8 5 C8 5.66 8 6.32 8 7 C4.59679258 5.98823563 3.24274669 5.35156418 1.1875 2.375 C0.795625 1.59125 0.40375 0.8075 0 0 Z " fill="#C529F7" transform="translate(72,561)"/>
<path d="M0 0 C1.32 0 2.64 0 4 0 C4 1.98 4 3.96 4 6 C3.01 5.67 2.02 5.34 1 5 C0.67 3.35 0.34 1.7 0 0 Z " fill="#9E35F3" transform="translate(448,448)"/>
<path d="M0 0 C1.98 0 3.96 0 6 0 C6 1.32 6 2.64 6 4 C3.69 3.34 1.38 2.68 -1 2 C-0.67 1.34 -0.34 0.68 0 0 Z " fill="#EDE2E8" transform="translate(246,376)"/>
<path d="M0 0 C4.875 4.75 4.875 4.75 6 7 C4.68 7 3.36 7 2 7 C2 6.34 2 5.68 2 5 C1.34 5 0.68 5 0 5 C0 3.35 0 1.7 0 0 Z " fill="#7B45F2" transform="translate(180,327)"/>
<path d="M0 0 C2 1 2 1 5 3 C4.34 4.98 3.68 6.96 3 9 C0.87491756 5.81237635 0.4979837 3.73487777 0 0 Z " fill="#4955EC" transform="translate(441,191)"/>
<path d="M0 0 C0.66 0.66 1.32 1.32 2 2 C1.2575 3.175625 1.2575 3.175625 0.5 4.375 C-1.16537965 6.78552327 -1.16537965 6.78552327 -1 9 C-2.32 8.67 -3.64 8.34 -5 8 C-3.35 5.36 -1.7 2.72 0 0 Z " fill="#3F5DEB" transform="translate(189,159)"/>
<path d="M0 0 C1.32 0.66 2.64 1.32 4 2 C2.71034824 3.37562854 1.37310707 4.70766393 0 6 C-0.66 6 -1.32 6 -2 6 C-1.49396008 3.83125748 -1.00016187 2.00032373 0 0 Z " fill="#3660EF" transform="translate(206,122)"/>
<path d="M0 0 C0.66 0 1.32 0 2 0 C0.63055898 2.94956528 -0.87830409 5.52468811 -3 8 C-3.66 8 -4.32 8 -5 8 C-3.63055898 5.05043472 -2.12169591 2.47531189 0 0 Z " fill="#BC34F4" transform="translate(565,548)"/>
<path d="M0 0 C0.66 1.32 1.32 2.64 2 4 C2.66 4 3.32 4 4 4 C4 5.32 4 6.64 4 8 C3.01 7.67 2.02 7.34 1 7 C0.67 4.69 0.34 2.38 0 0 Z " fill="#BA28F7" transform="translate(52,534)"/>
<path d="M0 0 C0.66 0 1.32 0 2 0 C5 5.75 5 5.75 5 8 C4.34 8 3.68 8 3 8 C3 7.01 3 6.02 3 5 C2.01 4.67 1.02 4.34 0 4 C0 2.68 0 1.36 0 0 Z " fill="#A330EE" transform="translate(406,505)"/>
<path d="M0 0 C0 0.66 0 1.32 0 2 C-2.31 2.66 -4.62 3.32 -7 4 C-7.66 3.34 -8.32 2.68 -9 2 C-3.375 0 -3.375 0 0 0 Z " fill="#8F44F1" transform="translate(351,380)"/>
<path d="M0 0 C0.33 0.66 0.66 1.32 1 2 C-0.4375 4.625 -0.4375 4.625 -2 7 C-2.66 5.68 -3.32 4.36 -4 3 C-2.68 2.01 -1.36 1.02 0 0 Z " fill="#7F40ED" transform="translate(380,365)"/>
<path d="M0 0 C1.32 0 2.64 0 4 0 C3.6875 1.875 3.6875 1.875 3 4 C2.01 4.66 1.02 5.32 0 6 C0 4.02 0 2.04 0 0 Z " fill="#EFEFF6" transform="translate(410,334)"/>
<path d="M0 0 C2 4 2 4 1.125 6.75 C0.75375 7.4925 0.3825 8.235 0 9 C-0.66 9 -1.32 9 -2 9 C-1.34 6.03 -0.68 3.06 0 0 Z " fill="#6347EA" transform="translate(441,287)"/>
<path d="M0 0 C3.65316671 1.24976756 4.78065836 1.67098753 7 5 C6.01 5.495 6.01 5.495 5 6 C5 5.34 5 4.68 5 4 C2.03 3.505 2.03 3.505 -1 3 C-0.67 2.01 -0.34 1.02 0 0 Z " fill="#375CEB" transform="translate(377,127)"/>
<path d="M0 0 C0.66 0.33 1.32 0.66 2 1 C1.01 2.485 1.01 2.485 0 4 C-0.66 4 -1.32 4 -2 4 C-2 4.66 -2 5.32 -2 6 C-2.99 5.67 -3.98 5.34 -5 5 C-3.35 3.35 -1.7 1.7 0 0 Z M-7 5 C-5 6 -5 6 -5 6 Z " fill="#E2ECF5" transform="translate(220,116)"/>
<path d="M0 0 C-1.32 1.32 -2.64 2.64 -4 4 C-5.32 3.01 -6.64 2.02 -8 1 C-2.25 -1.125 -2.25 -1.125 0 0 Z " fill="#F1F4F2" transform="translate(532,579)"/>
<path d="M0 0 C4.75 0.75 4.75 0.75 7 3 C5.35 3.33 3.7 3.66 2 4 C2 3.34 2 2.68 2 2 C1.34 2 0.68 2 0 2 C0 1.34 0 0.68 0 0 Z " fill="#F0EBF6" transform="translate(82,572)"/>
<path d="M0 0 C0.66 0 1.32 0 2 0 C2 0.66 2 1.32 2 2 C2.66 2 3.32 2 4 2 C4 2.66 4 3.32 4 4 C0.25 5.125 0.25 5.125 -2 4 C-2 3.34 -2 2.68 -2 2 C-1.34 2 -0.68 2 0 2 C0 1.34 0 0.68 0 0 Z " fill="#C21CFE" transform="translate(564,544)"/>
<path d="M0 0 C0.99 0 1.98 0 3 0 C4.4606285 2.64738916 5 3.89448334 5 7 C4.34 7 3.68 7 3 7 C0 2.61538462 0 2.61538462 0 0 Z " fill="#A739F5" transform="translate(387,471)"/>
<path d="M0 0 C0.33 0 0.66 0 1 0 C1 1.65 1 3.3 1 5 C-1.31 5 -3.62 5 -6 5 C-5.195625 4.360625 -4.39125 3.72125 -3.5625 3.0625 C-1.7249496 1.59396498 -1.7249496 1.59396498 0 0 Z " fill="#6950E3" transform="translate(363,279)"/>
<path d="M0 0 C1.32 0 2.64 0 4 0 C4 0.66 4 1.32 4 2 C3.34 2 2.68 2 2 2 C2 2.66 2 3.32 2 4 C0.68 4 -0.64 4 -2 4 C-1.34 2.68 -0.68 1.36 0 0 Z " fill="#F5F9EC" transform="translate(372,260)"/>
<path d="M0 0 C1.32 0 2.64 0 4 0 C4.33 1.98 4.66 3.96 5 6 C4.01 6 3.02 6 2 6 C1.34 4.02 0.68 2.04 0 0 Z " fill="#3C5AEF" transform="translate(426,160)"/>
<path d="M0 0 C6.64615385 1.47692308 6.64615385 1.47692308 8.4375 4.125 C8.7159375 5.053125 8.7159375 5.053125 9 6 C5.88802644 4.50164236 2.91164984 2.86022073 0 1 C0 0.67 0 0.34 0 0 Z " fill="#3D66EE" transform="translate(378,114)"/>
<path d="M0 0 C0.66 0.33 1.32 0.66 2 1 C0.60667426 4.36720387 -0.9789286 5.9859524 -4 8 C-2.87548273 5.0280615 -1.77706209 2.66559313 0 0 Z " fill="#356DEA" transform="translate(55,82)"/>
</svg>
