<?xml version="1.0" encoding="UTF-8"?>
<svg version="1.1" xmlns="http://www.w3.org/2000/svg" width="256" height="256">
<path d="M0 0 C0.68002414 -0.00523668 1.36004827 -0.01047336 2.0606792 -0.01586872 C4.32662573 -0.0308034 6.59234514 -0.03157242 8.8583374 -0.03224182 C10.48830035 -0.03986776 12.11825972 -0.04829601 13.74821472 -0.0574646 C18.1678184 -0.07937477 22.58735289 -0.08820392 27.00700474 -0.09329104 C29.77136869 -0.09693901 32.53571464 -0.1031814 35.30007172 -0.11029243 C44.95312798 -0.13477573 54.60613059 -0.14783622 64.25921631 -0.15138245 C73.24223216 -0.15501589 82.22490596 -0.18490043 91.20781732 -0.22678703 C98.93203401 -0.26153545 106.6561376 -0.27693168 114.38043189 -0.27762848 C118.98848789 -0.2784198 123.59619533 -0.28709151 128.20417023 -0.31562614 C132.54145776 -0.34188472 136.87810971 -0.34396892 141.21544075 -0.3279705 C142.80124109 -0.32616213 144.38707863 -0.33279125 145.9727993 -0.34878922 C155.82396143 -0.44206259 164.29585173 0.08371252 171.90474319 7.00032902 C179.70454858 15.04231006 179.44613077 24.61235199 179.40985107 35.17625427 C179.41556069 36.68005885 179.42252724 38.1838591 179.4306488 39.68765259 C179.44852983 43.75383214 179.44742144 47.8197953 179.44170642 51.8860023 C179.4386073 55.28798543 179.44471503 58.68992744 179.45074517 62.0919047 C179.46477211 70.12103287 179.46324431 78.15005459 179.45184326 86.17918396 C179.44036298 94.44650808 179.45444027 102.71350775 179.48123974 110.98078912 C179.50343122 118.09443116 179.51002639 125.20797162 179.50416332 132.3216458 C179.50080088 136.56348765 179.50316125 140.80512157 179.52041435 145.04693413 C179.53593667 149.03702533 179.53186992 153.02663764 179.51310921 157.01671028 C179.50943792 158.47552528 179.51248899 159.93437618 179.522995 161.39315796 C179.58867906 171.27269508 178.48469702 178.05580665 173.00579834 186.27415466 C173.83176514 186.77850037 174.65773193 187.28284607 175.50872803 187.80247498 C179.78006115 190.65763081 183.31499272 194.22094049 186.95892334 197.82102966 C188.07107208 198.91607819 188.07107208 198.91607819 189.20568848 200.0332489 C190.76488955 201.57362827 192.32125691 203.11688066 193.87493896 204.66282654 C196.24830922 207.01672698 198.64215557 209.3484319 201.03704834 211.68040466 C202.55398823 213.18428785 204.06965707 214.68945443 205.58392334 216.19602966 C206.29848694 216.88589966 207.01305054 217.57576965 207.74926758 218.2865448 C212.19522072 222.77285783 214.14366562 225.97201487 215.00579834 232.27415466 C214.04649139 236.83086265 211.28667738 239.33865001 208.00579834 242.52415466 C207.11892334 243.39556091 206.23204834 244.26696716 205.31829834 245.16477966 C201.8627931 248.31676079 199.25717916 248.9661933 194.64447021 248.82884216 C191.33664474 248.13348877 190.04357295 246.92999783 187.59954834 244.61009216 C186.73072021 243.79202087 185.86189209 242.97394958 184.96673584 242.13108826 C183.97970334 241.17883234 182.99272752 240.22651767 182.00579834 239.27415466 C180.87354646 238.20015838 179.74070715 237.12678113 178.60736084 236.05393982 C175.5083632 233.10758739 172.44651715 230.12556832 169.39837646 227.12669373 C168.12932295 225.88448809 166.85316083 224.64950615 165.57025146 223.4216156 C163.68776605 221.61844302 161.829485 219.79310475 159.97454834 217.96165466 C159.40377563 217.4238739 158.83300293 216.88609314 158.24493408 216.33201599 C154.5012266 212.56917737 153.18105668 209.47147494 152.38070679 204.22180176 C151.88513934 201.6473319 150.86169249 200.3911084 148.88079834 198.71165466 C147.93204834 197.90727966 146.98329834 197.10290466 146.00579834 196.27415466 C141.18080635 197.83901693 136.4364307 199.58746307 131.68939209 201.37181091 C120.78547038 205.03819507 107.67372131 204.40905152 97.00579834 200.27415466 C95.66965003 199.41718891 94.33458017 198.55854001 93.00042725 197.69847107 C84.67872166 193.50820923 75.0465304 194.61034436 65.96673584 194.67259216 C63.91510172 194.66708495 61.86347314 194.65895402 59.81185913 194.64833069 C54.43250891 194.62552877 49.05356643 194.62963359 43.67419434 194.64213562 C35.05881755 194.66049712 26.44367798 194.65040269 17.8283577 194.61627579 C14.83038299 194.61019589 11.83292547 194.62339858 8.83499146 194.63825989 C6.98746611 194.63531068 5.13994172 194.63165527 3.29241943 194.62718201 C2.46727341 194.63647232 1.64212738 194.64576263 0.79197693 194.65533447 C-6.99627937 194.60222712 -13.57003222 192.48460534 -19.38873291 187.14524841 C-25.4057063 180.13276604 -27.11343246 172.17414187 -27.12791443 163.14639282 C-27.13217941 161.93951309 -27.1364444 160.73263336 -27.14083862 159.48918152 C-27.14038544 158.17838623 -27.13993225 156.86759094 -27.13946533 155.51707458 C-27.14246002 154.11209016 -27.14586327 152.70710656 -27.14964294 151.30212402 C-27.15845596 147.49620686 -27.16081993 143.6903122 -27.16145873 139.88438582 C-27.16217081 137.50329783 -27.16430812 135.12221551 -27.16695595 132.74112892 C-27.1762007 124.42490401 -27.18029196 116.10869509 -27.17950439 107.79246521 C-27.17890395 100.05582284 -27.18945142 92.31925028 -27.20524806 84.58262557 C-27.21834917 77.92763861 -27.22368721 71.27267439 -27.22304899 64.61767465 C-27.22279474 60.64860694 -27.22560529 56.67960129 -27.23622704 52.71054649 C-27.2459513 48.97504931 -27.24595772 45.23967297 -27.2387104 41.50417137 C-27.2371764 39.49134609 -27.24548113 37.4785207 -27.25415039 35.4657135 C-27.21842873 25.11547945 -26.66234573 15.22086137 -19.16607666 7.35618591 C-13.20286758 1.83680347 -8.20296019 0.03144933 0 0 Z " fill="#020303" transform="translate(33.99420166015625,3.7258453369140625)"/>
<path d="M0 0 C63.03 0 126.06 0 191 0 C191.12375 19.92375 191.2475 39.8475 191.375 60.375 C191.45693604 69.79232666 191.45693604 69.79232666 191.54052734 79.39990234 C191.56762695 87.09887695 191.56762695 87.09887695 191.57266235 90.7093811 C191.58184283 93.21734004 191.60287704 95.7252734 191.63345337 98.23306274 C191.6775776 102.04434827 191.68342953 105.85402346 191.68115234 109.66552734 C191.70274099 110.77248648 191.72432964 111.87944561 191.74657249 113.01994896 C191.68825148 120.34556355 190.21795455 126.54995671 185 132 C183.68 132 182.36 132 181 132 C179.89453125 130.23046875 179.89453125 130.23046875 179 128 C179.57421875 126.17578125 179.57421875 126.17578125 180.6875 124.3125 C185.31938295 116.44672059 186.55997479 108.77920488 186.5 99.75 C186.49355469 98.73583008 186.48710937 97.72166016 186.48046875 96.67675781 C186.13883821 82.62944928 180.69203705 72.17182206 171.05859375 61.9375 C166.30447088 57.48111007 161.01314318 54.46260562 155 52 C154.36465332 51.73960938 153.72930664 51.47921875 153.07470703 51.2109375 C141.88625312 47.01620361 127.10277591 46.98248214 115.8125 50.9375 C100.19118117 58.26321755 91.27788694 69.26314917 85 85 C83.61903966 89.6672125 83.77699273 94.29330087 83.75 99.125 C83.729375 100.02476562 83.70875 100.92453125 83.6875 101.8515625 C83.63680616 110.67229011 85.62144376 118.21957314 90.0625 125.875 C90.56910156 126.75929688 91.07570313 127.64359375 91.59765625 128.5546875 C92.06042969 129.36164063 92.52320312 130.16859375 93 131 C93.67737578 132.3279248 94.34834165 133.65926751 95 135 C95.66 135 96.32 135 97 135 C97 135.66 97 136.32 97 137 C86.44676945 137.09285293 75.89363677 137.16384256 65.34008026 137.20724869 C60.43913805 137.22808595 55.5384762 137.25633285 50.63769531 137.30175781 C45.90441651 137.34535356 41.17140666 137.36916613 36.4379425 137.37950897 C34.63588734 137.38687575 32.83384619 137.40126133 31.03190613 137.42292023 C28.49946772 137.45213733 25.96812784 137.45594846 23.43554688 137.45410156 C22.69754852 137.46848267 21.95955017 137.48286377 21.19918823 137.49768066 C15.19070444 137.45054718 9.95111885 135.71833136 5.46703339 131.58795547 C1.45358859 127.02597408 -0.25291017 122.78788993 -0.24050903 116.76713562 C-0.24326403 115.73587146 -0.24601902 114.7046073 -0.2488575 113.6420927 C-0.24166128 112.51714303 -0.23446507 111.39219336 -0.22705078 110.2331543 C-0.22729185 109.02326497 -0.22753292 107.81337564 -0.2277813 106.56682301 C-0.22628917 102.65254665 -0.21106068 98.73846102 -0.1953125 94.82421875 C-0.19237176 92.4067799 -0.19033151 89.98933979 -0.18920898 87.57189941 C-0.17872523 78.61041352 -0.15080282 69.64895488 -0.125 60.6875 C-0.08375 40.660625 -0.0425 20.63375 0 0 Z " fill="#F1F3F5" transform="translate(15,54)"/>
<path d="M0 0 C0.65437068 -0.00297112 1.30874136 -0.00594224 1.98294145 -0.0090034 C4.17990945 -0.01768834 6.37682295 -0.01919849 8.57380676 -0.02069092 C10.14745704 -0.02531933 11.72110619 -0.03034402 13.29475403 -0.03573608 C17.57390225 -0.04886205 21.85303479 -0.05530572 26.1322 -0.05974674 C28.80657331 -0.06267786 31.48094234 -0.06678281 34.15531349 -0.07125092 C42.52529988 -0.08492794 50.89527648 -0.09459292 59.26527327 -0.09845281 C68.92208143 -0.10293066 78.57874785 -0.12046502 88.23551291 -0.1494534 C95.70230625 -0.17108819 103.16905977 -0.18115809 110.63588411 -0.18249393 C115.09404435 -0.1835409 119.55207139 -0.18942549 124.01019859 -0.20731354 C128.20696075 -0.22382474 132.40349002 -0.22593498 136.60027313 -0.21717453 C138.13691393 -0.21640572 139.67356741 -0.2207263 141.21017647 -0.23063278 C158.31555581 -0.33440308 158.31555581 -0.33440308 164.60432434 4.78887939 C165.27334778 5.64352783 165.27334778 5.64352783 165.95588684 6.51544189 C166.6481134 7.36235596 166.6481134 7.36235596 167.35432434 8.22637939 C173.23104717 17.39706151 170.58088684 23.57569491 170.58088684 36.14044189 C107.55088684 36.14044189 44.52088684 36.14044189 -20.41911316 36.14044189 C-20.41911316 11.45872146 -20.41911316 11.45872146 -14.60270691 5.17950439 C-14.02649597 4.71286377 -13.45028503 4.24622314 -12.85661316 3.76544189 C-11.98842957 3.04227783 -11.98842957 3.04227783 -11.10270691 2.30450439 C-7.53245229 -0.16402432 -4.19908542 0.01063855 0 0 Z " fill="#C7CDD4" transform="translate(35.41911315917969,10.85955810546875)"/>
<path d="M0 0 C7.38147105 4.43409922 13.12675552 10.46503371 16.5234375 18.390625 C18.42937386 29.30644236 18.12565386 39.27332962 11.66796875 48.54296875 C5.69683439 55.88049541 -1.7376907 60.61458456 -11.234375 61.734375 C-22.25566121 62.0151721 -30.41625063 59.53948331 -38.7265625 52.140625 C-45.6603519 44.32311734 -47.9137689 35.54953231 -47.3359375 25.2734375 C-46.17881374 16.92561611 -42.13048283 9.41633196 -35.80859375 3.796875 C-25.26427882 -3.87171767 -11.9980024 -5.66018718 0 0 Z " fill="#EFF1F3" transform="translate(164.7890625,124.671875)"/>
<path d="M0 0 C11.0083555 7.032652 17.86715713 16.60147138 22 29 C23.31253999 43.72760393 22.03508023 56.66092875 12.91015625 68.75 C6.00020419 76.88933004 -4.15515481 84.13570637 -15.09619141 85.20483398 C-30.87930324 85.86484281 -43.09757447 83.91047272 -55.26171875 72.96484375 C-65.95369397 61.74336119 -68.60264653 49.79580488 -68.33984375 34.8828125 C-67.79167837 23.13251224 -62.06956422 13.80612827 -53.75 5.84765625 C-38.83187434 -6.99053843 -17.43806712 -9.90402382 0 0 Z M-48.53125 18.984375 C-55.08599992 27.97972329 -56.50027064 37.17661893 -55 48 C-51.82248478 57.86819866 -46.11194988 65.07779339 -37 69.9375 C-28.62468783 73.41665306 -19.10662607 73.46080615 -10.5625 70.4375 C-1.62181288 66.20478268 4.50621825 59.31758043 8.11328125 50.1796875 C10.20104485 42.69316957 10.12807862 33.44788799 7.23046875 26.15625 C2.48848683 17.84649121 -4.6839598 11.38123792 -13.82421875 8.40625 C-26.92617691 5.95992388 -39.44424153 8.73921839 -48.53125 18.984375 Z " fill="#61CAE6" transform="translate(173,114)"/>
<path d="M0 0 C10.59481074 6.61017346 17.79827584 15.44534444 20.6796875 27.671875 C21.77745609 40.07921305 20.5112074 50.91599631 12.359375 60.83203125 C4.44799647 69.49775052 -4.03146706 74.68471964 -15.97705078 75.26416016 C-28.70090417 75.44180095 -37.94910118 71.96076979 -47.1953125 62.99609375 C-50.1466959 59.76801816 -52.42393628 56.61109552 -54.3203125 52.671875 C-54.63742188 52.04410156 -54.95453125 51.41632813 -55.28125 50.76953125 C-59.11664628 41.60328602 -58.83246776 29.47324411 -55.3828125 20.234375 C-50.09623182 9.40876457 -41.61619109 2.06297671 -30.55859375 -2.45703125 C-20.72239668 -5.1029564 -9.13296729 -4.50323595 0 0 Z M-43.8515625 14.65625 C-50.40631242 23.65159829 -51.82058314 32.84849393 -50.3203125 43.671875 C-47.14279728 53.54007366 -41.43226238 60.74966839 -32.3203125 65.609375 C-23.94500033 69.08852806 -14.42693857 69.13268115 -5.8828125 66.109375 C3.05787462 61.87665768 9.18590575 54.98945543 12.79296875 45.8515625 C14.88073235 38.36504457 14.80776612 29.11976299 11.91015625 21.828125 C7.16817433 13.51836621 -0.0042723 7.05311292 -9.14453125 4.078125 C-22.24648941 1.63179888 -34.76455403 4.41109339 -43.8515625 14.65625 Z " fill="#060808" transform="translate(168.3203125,118.328125)"/>
<path d="M0 0 C2.89840575 1.21781754 5.56551344 2.86942298 8.25 4.5 C8.95640625 4.9228125 9.6628125 5.345625 10.390625 5.78125 C10.92171875 6.1834375 11.4528125 6.585625 12 7 C12 7.66 12 8.32 12 9 C9.8125 10.7265625 9.8125 10.7265625 7 12.625 C6.071875 13.25664062 5.14375 13.88828125 4.1875 14.5390625 C3.465625 15.02117187 2.74375 15.50328125 2 16 C2.495 17.98 2.495 17.98 3 20 C8.11741797 19.54099495 11.28259675 16.92951469 15.25 13.9375 C21.90518417 9 21.90518417 9 23 9 C22.78444072 18.38662661 20.08954611 24.92700418 13.6875 31.8125 C5.97003847 39.07500201 -2.69239772 40.65626315 -13.03125 40.40625 C-21.38968499 39.55066217 -28.9029095 35.27230469 -34.53125 29.05078125 C-38.90775906 22.93996408 -41.8408932 16.56803884 -41 9 C-39.29113021 10.08248691 -37.58293129 11.16603294 -35.875 12.25 C-34.36292969 13.20132813 -34.36292969 13.20132813 -32.8203125 14.171875 C-30.70184659 15.54506343 -28.73846712 16.95703644 -26.75 18.5 C-23.09449025 20.49391441 -21.0077865 19.8015573 -17 19 C-15.3239112 19.28216171 -13.65363443 19.60708515 -12 20 C-11.70754395 19.42967041 -11.41508789 18.85934082 -11.11376953 18.27172852 C-9.79018246 15.69884536 -8.4577264 13.1306601 -7.125 10.5625 C-6.66480469 9.66466797 -6.20460937 8.76683594 -5.73046875 7.84179688 C-5.06337891 6.56079102 -5.06337891 6.56079102 -4.3828125 5.25390625 C-3.77010498 4.06776733 -3.77010498 4.06776733 -3.14501953 2.85766602 C-2 1 -2 1 0 0 Z " fill="#EFF1F3" transform="translate(159,146)"/>
<path d="M0 0 C2.4971228 0.92686501 3.78944941 2.08015325 5.68391418 3.94795227 C6.36754532 4.61567154 7.05117645 5.28339081 7.75552368 5.97134399 C8.48172409 6.69734299 9.2079245 7.42334198 9.95613098 8.17134094 C10.70750839 8.91510483 11.4588858 9.65886871 12.23303223 10.4251709 C13.81785694 11.99919353 15.39872428 13.57720925 16.97590637 15.15888977 C19.3996286 17.58358626 21.84388649 19.98617568 24.29011536 22.38813782 C25.82591943 23.91873669 27.36046867 25.4505959 28.89363098 26.98384094 C29.62995255 27.70376724 30.36627411 28.42369354 31.12490845 29.16543579 C31.79277878 29.84261154 32.46064911 30.51978729 33.14875793 31.21748352 C33.74292007 31.80959122 34.33708221 32.40169891 34.94924927 33.01174927 C36.09284973 34.77680969 36.09284973 34.77680969 35.88354492 36.86328125 C34.80499458 39.47343594 33.2575899 41.08272273 31.28034973 43.08930969 C30.59327942 43.8073175 29.90620911 44.52532532 29.19831848 45.26509094 C27.09284973 46.77680969 27.09284973 46.77680969 25.18569946 46.5684967 C22.70377978 45.6296316 21.39411657 44.47768948 19.50178528 42.62153625 C18.47633858 41.62479889 18.47633858 41.62479889 17.43017578 40.60792542 C16.70397537 39.88506348 15.97777496 39.16220154 15.22956848 38.41743469 C14.47819107 37.67604248 13.72681366 36.93465027 12.95266724 36.17079163 C11.36775549 34.60106341 9.78689035 33.02724046 8.20979309 31.44966125 C5.78769057 29.03413061 3.34263362 26.64359368 0.89558411 24.25337219 C-0.64038777 22.72620006 -2.17494254 21.19760106 -3.70793152 19.66743469 C-4.44425308 18.95266968 -5.18057465 18.23790466 -5.93920898 17.5014801 C-6.60707932 16.82437988 -7.27494965 16.14727966 -7.96305847 15.44966125 C-8.55722061 14.85977417 -9.15138275 14.26988708 -9.7635498 13.66212463 C-10.90715027 11.77680969 -10.90715027 11.77680969 -10.69784546 9.17567444 C-9.71881996 6.20544041 -8.44889876 4.9372082 -6.09465027 2.90180969 C-5.40757996 2.28563782 -4.72050964 1.66946594 -4.01261902 1.03462219 C-1.90715027 -0.22319031 -1.90715027 -0.22319031 0 0 Z " fill="#A4ABB6" transform="translate(204.9071502685547,198.2231903076172)"/>
<path d="M0 0 C0.91898575 0.00045319 1.8379715 0.00090637 2.7848053 0.00137329 C4.22861069 -0.00366463 4.22861069 -0.00366463 5.70158386 -0.00880432 C8.90064261 -0.01834554 12.0996492 -0.020259 15.29872131 -0.02133179 C17.51210553 -0.02454211 19.72548953 -0.02790601 21.93887329 -0.03141785 C26.58527621 -0.03741703 31.2316605 -0.03925693 35.87806702 -0.03866577 C41.84498888 -0.03856409 47.8117919 -0.05221874 53.77868557 -0.06943798 C58.35189365 -0.08053202 62.92507276 -0.08258578 67.49829292 -0.08205605 C69.69881157 -0.08324 71.89933087 -0.08768483 74.09983635 -0.09538841 C77.17199509 -0.10513625 80.24389276 -0.10233097 83.3160553 -0.09628296 C84.23301682 -0.10190247 85.14997833 -0.10752197 86.09472656 -0.11331177 C92.38681243 -0.08167817 92.38681243 -0.08167817 94.61512756 2.14663696 C94.07941328 5.68235125 94.07941328 5.68235125 92.61512756 7.14663696 C89.54594568 7.24729324 86.4992248 7.2827814 83.42958069 7.27603149 C82.46543747 7.27778381 81.50129425 7.27953613 80.50793457 7.28134155 C77.30406421 7.28576189 74.10024854 7.28282144 70.89637756 7.27944946 C68.68059783 7.28012245 66.46481817 7.28109243 64.2490387 7.28234863 C59.59843749 7.28382585 54.94785545 7.28167028 50.29725647 7.27700806 C44.32130152 7.27131076 38.34539147 7.27458964 32.36943817 7.28058052 C27.79198363 7.28418548 23.21453982 7.28304785 18.63708496 7.28045273 C16.43295283 7.27978328 14.22881973 7.2806125 12.02468872 7.28293228 C8.94999084 7.28545774 5.87536678 7.28161971 2.80067444 7.27603149 C1.88011765 7.27805573 0.95956085 7.28007996 0.0111084 7.28216553 C-6.27061016 7.26089924 -6.27061016 7.26089924 -7.38487244 6.14663696 C-7.50987244 3.64663696 -7.50987244 3.64663696 -7.38487244 1.14663696 C-5.45699472 -0.78124075 -2.56650312 0.0131645 0 0 Z " fill="#050505" transform="translate(55.38487243652344,63.853363037109375)"/>
<path d="M0 0 C0.72262024 0.00045319 1.44524048 0.00090637 2.1897583 0.00137329 C2.94747025 -0.00198532 3.70518219 -0.00534393 4.4858551 -0.00880432 C7.00313941 -0.01834226 9.52035741 -0.02025885 12.03765869 -0.02133179 C13.78021777 -0.0245424 15.52277658 -0.02790631 17.26533508 -0.03141785 C20.92309189 -0.03741624 24.58082504 -0.03925702 28.23858643 -0.03866577 C32.93430423 -0.03856411 37.62987097 -0.0522174 42.32555294 -0.06943798 C45.92597658 -0.08053599 49.52636345 -0.08258566 53.12680244 -0.08205605 C54.85841963 -0.08323945 56.59003767 -0.08768126 58.32163811 -0.09538841 C60.74002653 -0.10514414 63.15808373 -0.10232794 65.57647705 -0.09628296 C66.29707306 -0.10190247 67.01766907 -0.10752197 67.76010132 -0.11331177 C72.71949924 -0.08167874 72.71949924 -0.08167874 74.94781494 2.14663696 C74.41210066 5.68235125 74.41210066 5.68235125 72.94781494 7.14663696 C70.51924459 7.24693553 68.11909881 7.28282121 65.69000244 7.27603149 C64.9306842 7.27778381 64.17136597 7.27953613 63.38903809 7.28134155 C60.86694078 7.28576026 58.34491302 7.28282202 55.82281494 7.27944946 C54.07786038 7.2801225 52.3329059 7.28109252 50.58795166 7.28234863 C46.92599599 7.28382563 43.26406466 7.28167099 39.60211182 7.27700806 C34.89737002 7.27131077 30.19268526 7.27458976 25.48794556 7.28058052 C21.88327603 7.28418608 18.27862012 7.28304757 14.6739502 7.28045273 C12.93872064 7.27978345 11.20348986 7.28061193 9.46826172 7.28293228 C7.04735007 7.28545873 4.62653208 7.28161835 2.20562744 7.27603149 C1.48143616 7.27805573 0.75724487 7.28007996 0.0111084 7.28216553 C-4.93792239 7.26089963 -4.93792239 7.26089963 -6.05218506 6.14663696 C-6.17718506 3.64663696 -6.17718506 3.64663696 -6.05218506 1.14663696 C-4.3608823 -0.54466579 -2.25763976 0.01470521 0 0 Z " fill="#030304" transform="translate(54.05218505859375,87.85336303710938)"/>
<path d="M0 0 C17.16 0 34.32 0 52 0 C52.495 2.475 52.495 2.475 53 5 C50.49055695 7.50944305 49.68235913 7.2525033 46.21484375 7.25878906 C44.72319702 7.26824554 44.72319702 7.26824554 43.20141602 7.27789307 C42.12432373 7.2738446 41.04723145 7.26979614 39.9375 7.265625 C38.835271 7.26753845 37.73304199 7.2694519 36.59741211 7.27142334 C34.26383232 7.27278612 31.93024497 7.26908322 29.59667969 7.26074219 C26.01480153 7.25004421 22.43342497 7.26063458 18.8515625 7.2734375 C16.58854055 7.27211592 14.32551892 7.26955357 12.0625 7.265625 C10.98540771 7.26967346 9.90831543 7.27372192 8.79858398 7.27789307 C7.80415283 7.27158875 6.80972168 7.26528442 5.78515625 7.25878906 C4.90738525 7.25719788 4.02961426 7.25560669 3.12524414 7.25396729 C1 7 1 7 -1 5 C-0.67 3.35 -0.34 1.7 0 0 Z " fill="#090909" transform="translate(49,112)"/>
<path d="M0 0 C0.87931183 -0.0033284 1.75862366 -0.0066568 2.6645813 -0.01008606 C4.52914912 -0.01515962 6.39372606 -0.01749425 8.25830078 -0.01733398 C11.11375915 -0.01951669 13.96882901 -0.03765729 16.82421875 -0.05664062 C18.63281117 -0.05957519 20.44140544 -0.06155956 22.25 -0.0625 C23.10633026 -0.06968552 23.96266052 -0.07687103 24.84494019 -0.08427429 C26.04100388 -0.07965935 26.04100388 -0.07965935 27.26123047 -0.07495117 C27.96214813 -0.07637619 28.6630658 -0.07780121 29.38522339 -0.07926941 C31.2578125 0.16796875 31.2578125 0.16796875 34.2578125 2.16796875 C33.8828125 4.60546875 33.8828125 4.60546875 33.2578125 7.16796875 C29.89141974 8.85116513 26.08540561 8.33113723 22.3828125 8.3359375 C21.50254395 8.3392659 20.62227539 8.3425943 19.71533203 8.34602356 C17.85254439 8.35109042 15.98974765 8.35343196 14.12695312 8.35327148 C11.26938024 8.35545989 8.41219213 8.37362328 5.5546875 8.39257812 C3.74739716 8.39551165 1.94010498 8.39749672 0.1328125 8.3984375 C-1.15471924 8.40921577 -1.15471924 8.40921577 -2.46826172 8.42021179 C-8.51336171 8.39679454 -8.51336171 8.39679454 -10.7421875 6.16796875 C-9.84309669 -1.20457589 -6.56856293 0.00849585 0 0 Z " fill="#1C1C1C" transform="translate(58.7421875,134.83203125)"/>
<path d="M0 0 C0.88022827 0.00404846 1.76045654 0.00809692 2.6673584 0.01226807 C4.0210553 0.00939789 4.0210553 0.00939789 5.40209961 0.00646973 C7.31197386 0.00510748 9.22185736 0.00880669 11.13171387 0.01715088 C14.0617749 0.02784986 16.99122278 0.01725696 19.92126465 0.00445557 C21.77413059 0.00577715 23.62699615 0.00833953 25.4798584 0.01226807 C26.80020081 0.00619537 26.80020081 0.00619537 28.1472168 0 C34.3436918 0.04797647 34.3436918 0.04797647 36.5736084 2.27789307 C36.5736084 3.59789307 36.5736084 4.91789307 36.5736084 6.27789307 C34.28729345 7.42105054 33.03013434 7.39902039 30.49108887 7.39141846 C29.23000809 7.39130516 29.23000809 7.39130516 27.94345093 7.39118958 C26.58088669 7.38344765 26.58088669 7.38344765 25.1907959 7.37554932 C24.26139191 7.37413437 23.33198792 7.37271942 22.37442017 7.3712616 C19.39911716 7.36565359 16.42388875 7.35309974 13.4486084 7.34039307 C11.43428657 7.3353791 9.41996356 7.33081601 7.40563965 7.32672119 C2.46160038 7.31568156 -2.48238295 7.29841155 -7.4263916 7.27789307 C-8.0513916 4.90289307 -8.0513916 4.90289307 -8.4263916 2.27789307 C-5.73678977 -0.41170877 -3.65531642 0.02830144 0 0 Z " fill="#0A0B0B" transform="translate(56.4263916015625,158.72210693359375)"/>
<path d="M0 0 C5.07529657 0.29190017 8.39458549 3.12910778 12.3125 6.0625 C12.95767578 6.53494141 13.60285156 7.00738281 14.26757812 7.49414062 C15.85070051 8.65509704 17.42613569 9.82652336 19 11 C18.90439446 13.64827338 18.55468171 15.42347718 16.68554688 17.36621094 C14.9223103 18.78608039 13.11299923 20.08900256 11.25 21.375 C10.62867188 21.83777344 10.00734375 22.30054688 9.3671875 22.77734375 C4.73326152 26.05237582 4.73326152 26.05237582 1.046875 25.7890625 C0.37140625 25.52867187 -0.3040625 25.26828125 -1 25 C-1.33 23.68 -1.66 22.36 -2 21 C-0.54634731 19.82750647 0.91307419 18.66216184 2.375 17.5 C3.18710938 16.8503125 3.99921875 16.200625 4.8359375 15.53125 C7 14 7 14 9 14 C9 13.34 9 12.68 9 12 C8.29875 11.773125 7.5975 11.54625 6.875 11.3125 C3.30656387 9.68343133 0.93485489 7.59359269 -2 5 C-1.125 1.125 -1.125 1.125 0 0 Z " fill="#070808" transform="translate(162,141)"/>
<path d="M0 0 C0.556875 0.226875 1.11375 0.45375 1.6875 0.6875 C2.0175 2.0075 2.3475 3.3275 2.6875 4.6875 C1.23384731 5.85999353 -0.22557419 7.02533816 -1.6875 8.1875 C-2.49960938 8.8371875 -3.31171875 9.486875 -4.1484375 10.15625 C-6.3125 11.6875 -6.3125 11.6875 -8.3125 11.6875 C-8.3125 12.3475 -8.3125 13.0075 -8.3125 13.6875 C-7.61125 13.914375 -6.91 14.14125 -6.1875 14.375 C-2.61906387 16.00406867 -0.24735489 18.09390731 2.6875 20.6875 C2.3575 22.0075 2.0275 23.3275 1.6875 24.6875 C-0.61216577 25.49132203 -1.8237925 25.88272008 -4.12768555 24.96240234 C-6.09644086 23.67734158 -8.05863888 22.38875812 -10 21.0625 C-10.68900391 20.62292969 -11.37800781 20.18335938 -12.08789062 19.73046875 C-17.07725123 16.38460451 -17.07725123 16.38460451 -18.26953125 12.8515625 C-18.29080078 11.78035156 -18.29080078 11.78035156 -18.3125 10.6875 C-16.58528316 9.41401788 -14.85563762 8.14382943 -13.125 6.875 C-12.16207031 6.16730469 -11.19914062 5.45960938 -10.20703125 4.73046875 C-2.94157703 -0.39751041 -2.94157703 -0.39751041 0 0 Z " fill="#060707" transform="translate(137.3125,141.3125)"/>
<path d="M0 0 C1.67542976 0.28604898 3.34385343 0.61781233 5 1 C4.51766621 7.06132791 2.59280217 11.53899593 -0.25 16.875 C-0.63285156 17.64585937 -1.01570312 18.41671875 -1.41015625 19.2109375 C-4.31679171 24.73257276 -4.31679171 24.73257276 -7.734375 26.0703125 C-10 26 -10 26 -11 25 C-10.680938 18.85805651 -8.4593844 14.43906487 -5.5 9.125 C-5.08363281 8.35414063 -4.66726562 7.58328125 -4.23828125 6.7890625 C-1.19507119 1.19507119 -1.19507119 1.19507119 0 0 Z " fill="#090909" transform="translate(153,141)"/>
<path d="M0 0 C3.5 -0.375 3.5 -0.375 7 0 C9 3 9 3 8.75 5.5625 C8 8 8 8 6 10 C2.375 9.625 2.375 9.625 -1 9 C-1.625 6.1875 -1.625 6.1875 -2 3 C-1.34 2.01 -0.68 1.02 0 0 Z " fill="#090A0A" transform="translate(161,24)"/>
<path d="M0 0 C3.0625 0.3125 3.0625 0.3125 5 1.5 C6.0625 3.3125 6.0625 3.3125 5.875 5.875 C5.0625 8.3125 5.0625 8.3125 3.0625 10.3125 C-0.5625 9.9375 -0.5625 9.9375 -3.9375 9.3125 C-4.5625 5.9375 -4.5625 5.9375 -4.9375 2.3125 C-2.9375 0.3125 -2.9375 0.3125 0 0 Z " fill="#090A0A" transform="translate(142.9375,23.6875)"/>
<path d="M0 0 C1.175625 0.0825 2.35125 0.165 3.5625 0.25 C5.5625 3.25 5.5625 3.25 5.3125 5.8125 C4.5625 8.25 4.5625 8.25 2.5625 10.25 C-0.27136167 10.6133156 -1.84272151 10.6068671 -4.3125 9.125 C-5.4375 7.25 -5.4375 7.25 -5.1875 4.125 C-4.19092466 0.30479452 -4.19092466 0.30479452 0 0 Z " fill="#080809" transform="translate(185.4375,23.75)"/>
<path d="M0 0 C1.051875 -0.02126953 1.051875 -0.02126953 2.125 -0.04296875 C4 0.1875 4 0.1875 6 2.1875 C5.44444444 6.74305556 5.44444444 6.74305556 4 8.1875 C-3.2303207 8.6539723 -3.2303207 8.6539723 -6.0625 6.9375 C-7 5.1875 -7 5.1875 -6.8125 3.0625 C-5.40934027 -0.17556092 -3.20539329 0.02946134 0 0 Z " fill="#1E1E1E" transform="translate(33,134.8125)"/>
<path d="M0 0 C1.20462891 -0.02126953 1.20462891 -0.02126953 2.43359375 -0.04296875 C4.5625 0.1875 4.5625 0.1875 6.5625 2.1875 C6.1875 4.8125 6.1875 4.8125 5.5625 7.1875 C3.93786158 7.24145478 2.31271459 7.28027195 0.6875 7.3125 C-0.21742187 7.33570313 -1.12234375 7.35890625 -2.0546875 7.3828125 C-4.4375 7.1875 -4.4375 7.1875 -6.4375 5.1875 C-5.71690033 0.43154218 -4.62384174 0.03699073 0 0 Z " fill="#121212" transform="translate(32.4375,158.8125)"/>
<path d="M0 0 C1.37478516 0.01740234 1.37478516 0.01740234 2.77734375 0.03515625 C3.69644531 0.04417969 4.61554687 0.05320312 5.5625 0.0625 C6.27277344 0.07410156 6.98304687 0.08570312 7.71484375 0.09765625 C8.33984375 2.47265625 8.33984375 2.47265625 8.71484375 5.09765625 C6.71484375 7.09765625 6.71484375 7.09765625 4.62109375 7.36328125 C3.82703125 7.358125 3.03296875 7.35296875 2.21484375 7.34765625 C1.42078125 7.3528125 0.62671875 7.35796875 -0.19140625 7.36328125 C-2.28515625 7.09765625 -2.28515625 7.09765625 -4.28515625 5.09765625 C-3.53567763 0.15109733 -3.53567763 0.15109733 0 0 Z " fill="#121212" transform="translate(30.28515625,111.90234375)"/>
<path d="M0 0 C1.20462891 -0.02126953 1.20462891 -0.02126953 2.43359375 -0.04296875 C4.5625 0.1875 4.5625 0.1875 6.5625 2.1875 C6.1875 4.8125 6.1875 4.8125 5.5625 7.1875 C3.93786158 7.24145478 2.31271459 7.28027195 0.6875 7.3125 C-0.21742187 7.33570312 -1.12234375 7.35890625 -2.0546875 7.3828125 C-4.4375 7.1875 -4.4375 7.1875 -6.4375 5.1875 C-5.71690033 0.43154218 -4.62384174 0.03699073 0 0 Z " fill="#0D0D0D" transform="translate(32.4375,63.8125)"/>
<path d="M0 0 C1.20462891 -0.02126953 1.20462891 -0.02126953 2.43359375 -0.04296875 C4.5625 0.1875 4.5625 0.1875 6.5625 2.1875 C6.02678571 5.72321429 6.02678571 5.72321429 4.5625 7.1875 C2.56640625 7.35546875 2.56640625 7.35546875 0.125 7.375 C-1.07962891 7.39626953 -1.07962891 7.39626953 -2.30859375 7.41796875 C-4.4375 7.1875 -4.4375 7.1875 -6.4375 5.1875 C-5.71690033 0.43154218 -4.62384174 0.03699073 0 0 Z " fill="#0A0A0A" transform="translate(32.4375,87.8125)"/>
<path d="M0 0 C1.98 1.65 3.96 3.3 6 5 C5.6875 6.875 5.6875 6.875 5 9 C4.01 9.66 3.02 10.32 2 11 C0.02 8.69 -1.96 6.38 -4 4 C-2.68 2.68 -1.36 1.36 0 0 Z " fill="#C0C6CD" transform="translate(189,189)"/>
</svg>
