<?xml version="1.0" encoding="UTF-8"?>
<svg version="1.1" xmlns="http://www.w3.org/2000/svg" width="512" height="512">
<path d="M0 0 C1.30904499 -0.00843994 2.61808999 -0.01687988 3.96680301 -0.02557558 C5.41787256 -0.01978043 6.86894099 -0.0136994 8.32000828 -0.00736332 C9.86272668 -0.01153573 11.40544202 -0.01701273 12.94815165 -0.02368313 C17.18952082 -0.03816875 21.43069619 -0.03388333 25.67207611 -0.02651632 C30.2454432 -0.02179465 34.81876776 -0.0342856 39.39212132 -0.04453373 C48.35243147 -0.06174665 57.31267158 -0.06255659 66.27299397 -0.05732083 C73.55448648 -0.05328259 80.83595825 -0.05471856 88.11744976 -0.06006908 C89.15302508 -0.06081751 90.18860039 -0.06156593 91.25555678 -0.06233703 C93.35919273 -0.06386848 95.46282867 -0.06540682 97.56646461 -0.066952 C117.30242209 -0.08068602 137.03833995 -0.07523298 156.77429653 -0.06376678 C174.83743958 -0.05383306 192.90048023 -0.06677591 210.96360748 -0.09070098 C229.50278887 -0.11507194 248.04192251 -0.12470481 266.5811196 -0.11804825 C276.99270834 -0.11455162 287.40421829 -0.11681732 297.81579494 -0.13429928 C306.67880354 -0.14899621 315.54167787 -0.14968959 324.40468376 -0.13222837 C328.92796613 -0.12369534 333.45100839 -0.12162479 337.97427845 -0.13687992 C342.11394674 -0.15066867 346.2531679 -0.14603931 350.39280993 -0.12664068 C351.89141009 -0.12286242 353.39004556 -0.12585499 354.88861441 -0.13625234 C356.92417668 -0.14937263 358.95985953 -0.13548527 360.9954071 -0.12025452 C362.69210892 -0.12009351 362.69210892 -0.12009351 364.42308754 -0.11992925 C369.23703151 0.64760161 372.43919939 2.91086364 375.37312412 6.75531673 C378.01316046 12.59118654 377.71205131 18.81791906 377.71884251 25.09928036 C377.72378048 26.07220882 377.72871846 27.04513727 377.73380607 28.04754841 C377.74915101 31.30414007 377.75753358 34.56071206 377.76594639 37.81732845 C377.77552727 40.1531609 377.78553748 42.48899161 377.79594517 44.82482052 C377.8229775 51.16516105 377.84399615 57.50550902 377.86394715 63.84587526 C377.88360125 69.80093753 377.9077453 75.75598015 377.93186938 81.71102573 C377.97949735 93.504097 378.02277448 105.29718005 378.06330967 117.09027767 C378.10268903 128.54438855 378.14412108 139.99848898 378.18830967 151.45258236 C378.19103394 152.15892397 378.19375821 152.86526558 378.19656504 153.59301148 C378.21024492 157.13661269 378.22396511 160.68021375 378.23770535 164.22381473 C378.35159477 193.60929327 378.45834815 222.99479548 378.56062412 252.38031673 C379.52647434 252.9253233 380.49232456 253.47032986 381.48744297 254.03185177 C382.7648348 254.75620316 384.04215441 255.48068192 385.31941319 256.20526791 C385.95481022 256.56336292 386.59020725 256.92145794 387.24485874 257.29040432 C410.9374981 270.75563432 426.38850028 294.3072248 433.93562412 320.00531673 C436.38634237 328.97707656 436.82250555 337.42506792 436.87312412 346.69281673 C436.87740421 347.36239407 436.8816843 348.0319714 436.88609409 348.72183895 C436.91815032 358.31757428 436.15543086 367.03564426 433.33796787 376.22797298 C432.49021589 379.66584156 432.47559915 381.04985192 433.56062412 384.38031673 C435.71332396 387.08595853 435.71332396 387.08595853 438.53596592 389.74628353 C439.053167 390.25764355 439.57036808 390.76900356 440.10324192 391.29585934 C441.22560162 392.40302312 442.35255792 393.50554231 443.48354244 394.60389423 C445.28010755 396.34922223 447.06371714 398.10690309 448.84451389 399.86830807 C453.27378677 404.24419022 457.72424881 408.59831633 462.17457676 412.95276546 C465.9298445 416.6286452 469.67650369 420.31291123 473.41247082 424.00840855 C475.15799235 425.72826358 476.9152415 427.4354667 478.6733408 429.14244747 C488.92196545 439.20149852 496.77350395 449.79282792 497.07991123 464.62323666 C497.07354649 465.45057308 497.06718174 466.27790951 497.06062412 467.13031673 C497.05490391 468.00212582 497.04918369 468.8739349 497.04329014 469.77216244 C496.69256715 482.55760956 491.63331605 491.90596576 482.97859287 501.05219173 C472.44820371 510.99328904 460.49642054 512.94993511 446.70124912 512.72016048 C430.38072996 511.99978592 419.89826417 501.04936938 409.19282246 489.97945309 C407.51712429 488.24972881 405.83217808 486.52952557 404.14415073 484.81183529 C399.3516984 479.93455788 394.56555208 475.05152665 389.8111124 470.13715267 C386.88724415 467.11629657 383.94424329 464.11528532 380.98778248 461.12633419 C379.86966933 459.98844861 378.75890263 458.84329462 377.65583515 457.69081783 C376.1171879 456.08470739 374.55536351 454.50508956 372.98591709 452.92914486 C372.1048328 452.02426327 371.22374851 451.11938168 370.3159647 450.18707943 C367.60165214 448.02194949 367.60165214 448.02194949 363.92312717 448.54985714 C362.81350117 448.82390881 361.70387516 449.09796047 360.56062412 449.38031673 C359.49626133 449.62403011 358.43189854 449.86774349 357.33528233 450.11884212 C356.25077793 450.38173031 355.16627354 450.64461849 354.04890537 450.91547298 C346.56361247 452.5396123 339.38938554 452.88004119 331.74812412 452.81781673 C330.4351334 452.81024349 329.12214268 452.80267025 327.76936436 452.79486752 C317.82277798 452.6264584 308.96015597 451.60015637 299.56062412 448.38031673 C298.61026279 448.05885677 298.61026279 448.05885677 297.64070225 447.73090267 C271.00254331 438.5161921 248.99038476 419.92794275 236.58406162 394.42328548 C231.90593793 384.34629486 227.40336238 373.6113449 227.56062412 362.38031673 C226.36018152 362.38400391 225.15973892 362.38769108 223.92291927 362.39148998 C195.4274345 362.47811962 166.93195155 362.5440779 138.43636485 362.58457805 C134.92911901 362.58958088 131.42187345 362.59475817 127.91462803 362.6000433 C126.86728304 362.60161716 126.86728304 362.60161716 125.79877956 362.60322282 C114.49283498 362.62062849 103.18697175 362.65216705 91.88107543 362.68892792 C80.28034249 362.72633288 68.67965701 362.74825222 57.0788666 362.75667071 C50.56278001 362.76189067 44.04687793 362.77418033 37.53085041 362.80323696 C31.39956743 362.83035679 25.26854525 362.83876855 19.13720798 362.83274746 C16.88535871 362.83384922 14.63350084 362.84182327 12.38170338 362.85713863 C9.30937934 362.8770123 6.23804258 362.87226495 3.16569614 362.8613348 C2.27269129 362.87298617 1.37968644 362.88463753 0.45962083 362.89664197 C-4.97465975 362.84431249 -8.20666796 362.11445015 -12.43937588 358.38031673 C-15.15634699 354.61574918 -15.81512569 352.02390882 -15.81969261 347.40946198 C-15.82813255 346.20491885 -15.83657249 345.00037572 -15.84526819 343.75933129 C-15.83925814 342.439502 -15.8332481 341.11967271 -15.82705593 339.75984859 C-15.83122885 338.34087386 -15.83670613 336.92190246 -15.84337574 335.50293726 C-15.85785473 331.6036099 -15.85357804 327.70449347 -15.84620893 323.80515444 C-15.84148561 319.59988734 -15.85397968 315.39466641 -15.86422634 311.18941402 C-15.88143604 302.95100622 -15.88224987 294.7126746 -15.87701344 286.47425348 C-15.87297459 279.77914488 -15.87441189 273.08405882 -15.8797617 266.3889513 C-15.88051012 265.43663682 -15.88125854 264.48432234 -15.88202964 263.50314985 C-15.88356109 261.5686239 -15.88509944 259.63409796 -15.88664461 257.69957202 C-15.90037747 239.55166706 -15.89492641 221.40380519 -15.8834594 203.25590121 C-15.87352584 186.64772315 -15.88646841 170.03965649 -15.91039359 153.43149561 C-15.93476701 136.38392967 -15.94439681 119.33641563 -15.93774086 102.2888326 C-15.93424477 92.71561153 -15.93650638 83.14247615 -15.95399189 73.56926823 C-15.9686919 65.41991278 -15.96937818 57.27070335 -15.95192098 49.12135083 C-15.94339046 44.96260907 -15.94131123 40.80412841 -15.95657253 36.64540005 C-15.97036885 32.83879416 -15.96572228 29.03267432 -15.9463333 25.22609692 C-15.94076764 23.19573918 -15.95488687 21.16535701 -15.9696874 19.13504559 C-15.87843488 7.91104882 -15.87843488 7.91104882 -11.43937588 3.38031673 C-7.52364072 0.54548779 -4.80209792 0.00436968 0 0 Z M15.56062412 30.38031673 C15.56062412 40.28031673 15.56062412 50.18031673 15.56062412 60.38031673 C104.99062412 60.38031673 194.42062412 60.38031673 286.56062412 60.38031673 C286.56062412 50.48031673 286.56062412 40.58031673 286.56062412 30.38031673 C197.13062412 30.38031673 107.70062412 30.38031673 15.56062412 30.38031673 Z M317.56062412 30.38031673 C317.56062412 40.28031673 317.56062412 50.18031673 317.56062412 60.38031673 C327.13062412 60.38031673 336.70062412 60.38031673 346.56062412 60.38031673 C346.56062412 50.48031673 346.56062412 40.58031673 346.56062412 30.38031673 C336.99062412 30.38031673 327.42062412 30.38031673 317.56062412 30.38031673 Z M15.56062412 90.38031673 C15.56062412 170.24031673 15.56062412 250.10031673 15.56062412 332.38031673 C85.52062412 332.38031673 155.48062412 332.38031673 227.56062412 332.38031673 C228.88062412 326.77031673 230.20062412 321.16031673 231.56062412 315.38031673 C241.28272188 288.20263438 258.09488618 266.25135347 284.52156162 253.39984798 C305.25707249 243.78556315 322.80419439 243.17219773 346.56062412 242.38031673 C346.56062412 192.22031673 346.56062412 142.06031673 346.56062412 90.38031673 C237.33062412 90.38031673 128.10062412 90.38031673 15.56062412 90.38031673 Z M277.56062412 295.38031673 C262.98501937 310.31080577 257.27014649 329.90173323 257.31843662 350.23187923 C257.52125651 367.0862116 263.52474873 382.50040047 274.56062412 395.38031673 C275.32246006 396.33809017 276.084296 397.29586361 276.86921787 398.28266048 C288.86212536 412.62515338 307.64653742 420.20681708 325.81062412 422.19281673 C347.00066356 423.38269947 366.65699833 416.07080155 382.63874912 402.20062923 C391.91835995 393.50329254 397.95016916 383.1369769 402.56062412 371.38031673 C403.10203037 370.00746517 403.10203037 370.00746517 403.65437412 368.60687923 C409.3537919 350.61149532 406.41395167 329.19400722 397.93562412 312.69281673 C388.49969234 295.48349572 373.43646382 282.24746597 354.72078037 276.02484798 C326.37584004 267.92211478 298.9316803 275.05475107 277.56062412 295.38031673 Z M415.56062412 411.38031673 C412.91616597 414.17807681 410.32627444 417.01776696 407.74812412 419.87641048 C403.92467275 424.06106349 399.93001529 427.76695254 395.56062412 431.38031673 C400.40988042 437.21385718 405.61592341 442.59659626 410.97468662 447.96234798 C411.86674809 448.85773785 412.75880955 449.75312771 413.67790318 450.6756506 C415.55417748 452.55696517 417.43153363 454.43712538 419.31062412 456.31561947 C421.71421364 458.71910675 424.11081101 461.12944053 426.50576305 463.54153061 C428.80340583 465.8529627 431.10823328 468.15720863 433.41218662 470.46234798 C434.26954411 471.32689098 435.12690159 472.19143398 436.0102396 473.08217525 C436.81142216 473.88028118 437.61260471 474.67838711 438.43806553 475.50067806 C439.13944645 476.203484 439.84082737 476.90628994 440.56346226 477.63039303 C444.87491948 481.40811447 448.50107912 481.82014468 454.08796787 481.69672298 C458.78106817 481.09618408 461.40482832 478.69021864 464.43562412 475.25531673 C466.09264485 471.02070821 466.41493841 466.85369472 465.56062412 462.38031673 C463.07812483 458.31031915 460.35944268 454.93012115 456.99153233 451.56830502 C456.0941283 450.66782436 455.19672428 449.76734371 454.2721262 448.83957577 C453.30206716 447.87641102 452.33182256 446.91343313 451.36140537 445.95062923 C450.36024164 444.95065903 449.35944886 443.95031731 448.35900974 442.94962215 C446.27166267 440.86383226 444.18101952 438.78142518 442.08772373 436.7016058 C439.39904287 434.03001314 436.71709173 431.35178491 434.03732109 428.67125797 C431.97622002 426.61042798 429.91253014 424.55220754 427.84793758 422.49487591 C426.85731682 421.50744422 425.86730664 420.51939959 424.87790966 419.53074169 C423.50163471 418.15662215 422.1216792 416.78619186 420.74153233 415.41596127 C419.95639759 414.63463833 419.17126286 413.85331539 418.36233616 413.048316 C416.84753505 411.2670913 416.84753505 411.2670913 415.56062412 411.38031673 Z " fill="#000000" transform="translate(15.439375877380371,-0.38031673431396484)"/>
<path d="M0 0 C4.61581142 2.18643699 6.72864085 4.49599804 9 9 C9.43359375 11.90234375 9.43359375 11.90234375 9.4375 14.9375 C9.45683594 15.93652344 9.47617188 16.93554688 9.49609375 17.96484375 C8.40539384 24.63786602 4.0473712 28.03842885 -1.14379883 31.79541016 C-2.34105591 32.63918213 -2.34105591 32.63918213 -3.5625 33.5 C-5.26587357 34.72621727 -6.96899085 35.95279063 -8.671875 37.1796875 C-9.54779297 37.80584961 -10.42371094 38.43201172 -11.32617188 39.07714844 C-15.68853482 42.21428965 -19.99718308 45.4236281 -24.3125 48.625 C-32.60681158 54.77666432 -32.60681158 54.77666432 -36.54296875 57.2734375 C-37.35378906 57.84320313 -38.16460937 58.41296875 -39 59 C-39 59.66 -39 60.32 -39 61 C-37.09526637 62.50390061 -35.1881341 63.8828729 -33.1875 65.25 C-31.90130543 66.14825465 -30.61620892 67.04808301 -29.33203125 67.94921875 C-28.28716553 68.68084229 -28.28716553 68.68084229 -27.22119141 69.42724609 C-20.80223944 73.97229869 -14.51241666 78.69922059 -8.19433594 83.3828125 C-6.21454648 84.84188297 -4.22406976 86.28408822 -2.2265625 87.71875 C-1.16179687 88.4921875 -0.09703125 89.265625 1 90.0625 C1.9075 90.71347656 2.815 91.36445313 3.75 92.03515625 C7.11007822 94.96939122 8.77041058 97.46319873 9.43359375 101.90234375 C9.44150672 108.05071801 9.4465054 112.31314296 5 117 C0.4640562 120.12085172 -2.9763683 121.00135046 -8.44921875 120.84765625 C-15.56981343 119.14780031 -21.02047211 114.22830491 -26.6953125 109.78808594 C-29.80075244 107.37873825 -32.97619329 105.0714029 -36.15307617 102.75756836 C-43.55369767 97.35914155 -50.88554673 91.86547782 -58.19433594 86.34350586 C-61.50688767 83.84566053 -64.840746 81.38769987 -68.22265625 78.984375 C-69.25181152 78.24803833 -69.25181152 78.24803833 -70.30175781 77.49682617 C-71.6014328 76.56972678 -72.90645832 75.65006277 -74.21777344 74.73950195 C-77.76385793 72.20218363 -80.25048896 70.02880359 -82 66 C-82.43359375 63.09765625 -82.43359375 63.09765625 -82.4375 60.0625 C-82.45683594 59.06347656 -82.47617188 58.06445312 -82.49609375 57.03515625 C-81.60136552 51.56111029 -78.68549642 48.34237957 -74.375 45.09765625 C-72.92344253 44.07623966 -71.46463832 43.06506947 -70 42.0625 C-68.37241443 40.91849051 -66.74616048 39.77258469 -65.12109375 38.625 C-64.27788574 38.03203125 -63.43467773 37.4390625 -62.56591797 36.828125 C-58.33976149 33.8171393 -54.20289747 30.68982581 -50.0625 27.5625 C-43.33114296 22.49543537 -36.58750547 17.44610484 -29.8125 12.4375 C-29.05912354 11.87812744 -28.30574707 11.31875488 -27.52954102 10.74243164 C-25.36450388 9.14505228 -23.18550499 7.5692313 -21 6 C-20.23051025 5.43506836 -19.46102051 4.87013672 -18.66821289 4.28808594 C-12.32608784 -0.20245461 -7.76975908 -1.29495985 0 0 Z " fill="#000000" transform="translate(142,152)"/>
<path d="M0 0 C4.36376977 2.31690251 8.07570279 5.22124759 11.90820312 8.32226562 C15.05984151 10.85005029 18.2865277 13.27659397 21.50634766 15.71655273 C24.21099499 17.76781914 26.90650829 19.83068328 29.6015625 21.89453125 C34.71521124 25.79734299 39.87771445 29.62989866 45.0625 33.4375 C45.84455811 34.01330811 46.62661621 34.58911621 47.43237305 35.18237305 C50.85882597 37.70299469 54.2915758 40.21328098 57.74609375 42.6953125 C58.83076722 43.4843227 59.91540566 44.27338104 61 45.0625 C61.9075 45.71347656 62.815 46.36445313 63.75 47.03515625 C67.11007822 49.96939122 68.77041058 52.46319873 69.43359375 56.90234375 C69.43488281 57.90394531 69.43617188 58.90554687 69.4375 59.9375 C69.45683594 60.93652344 69.47617187 61.93554688 69.49609375 62.96484375 C68.41297431 69.59148789 64.12636614 72.97338318 58.9609375 76.69140625 C58.16945313 77.24699219 57.37796875 77.80257812 56.5625 78.375 C54.84379702 79.61023475 53.12639586 80.84728242 51.41015625 82.0859375 C50.5195752 82.7262793 49.62899414 83.36662109 48.71142578 84.02636719 C44.24913454 87.27444592 39.87732043 90.63878504 35.5 94 C28.56322196 99.30831138 21.59236189 104.56547686 14.5625 109.75 C13.78777344 110.32234375 13.01304687 110.8946875 12.21484375 111.484375 C10.78582639 112.53467751 9.35265394 113.57936031 7.91455078 114.6171875 C6.21073063 115.8477967 4.52399703 117.10198492 2.83984375 118.359375 C-1.94678813 121.1246919 -6.63766143 120.72821882 -12 120 C-16.61581142 117.81356301 -18.72864085 115.50400196 -21 111 C-21.43359375 108.09765625 -21.43359375 108.09765625 -21.4375 105.0625 C-21.45683594 104.06347656 -21.47617188 103.06445312 -21.49609375 102.03515625 C-20.41265094 95.4065337 -16.12364503 92.02481306 -10.95703125 88.30566406 C-10.16683594 87.75104492 -9.37664062 87.19642578 -8.5625 86.625 C-6.86458455 85.40545493 -5.16802285 84.18402341 -3.47265625 82.9609375 C-2.58465332 82.3225293 -1.69665039 81.68412109 -0.78173828 81.02636719 C4.03957801 77.51426211 8.76705535 73.87983897 13.5 70.25 C15.2599118 68.90038307 17.02029216 67.5513768 18.78125 66.203125 C19.52439453 65.63239258 20.26753906 65.06166016 21.03320312 64.47363281 C22.65003607 63.2622123 24.31899306 62.12067129 26 61 C24.88024077 57.64072231 24.26397398 57.19085244 21.484375 55.20703125 C20.73752441 54.6668335 19.99067383 54.12663574 19.22119141 53.57006836 C18.40569824 52.9900708 17.59020508 52.41007324 16.75 51.8125 C15.02235222 50.56139313 13.29583271 49.30872709 11.5703125 48.0546875 C10.66313477 47.39694336 9.75595703 46.73919922 8.82128906 46.06152344 C4.0483819 42.57394745 -0.66680729 39.01173253 -5.375 35.4375 C-6.25961914 34.77145752 -7.14423828 34.10541504 -8.05566406 33.41918945 C-18.91845418 25.16309164 -18.91845418 25.16309164 -21 21 C-21.5099099 15.41606867 -21.73870063 10.55947912 -19.3125 5.4375 C-13.70322357 -0.47498056 -7.86879586 -1.66384585 0 0 Z " fill="#000000" transform="translate(263,152)"/>
<path d="M0 0 C4.63342298 2.19477931 6.67395607 4.51521543 9 9 C11.38504812 19.97658134 6.06294046 31.43849826 2.578125 41.6484375 C1.91378394 43.63429529 1.25078149 45.62060134 0.58905029 47.60733032 C-0.79539861 51.75133536 -2.19176597 55.89105316 -3.59765625 60.02783203 C-5.39607125 65.32086422 -7.1705182 70.62154283 -8.93693161 75.92532921 C-10.30233046 80.01989223 -11.67709773 84.11125805 -13.05503082 88.20161819 C-13.71259411 90.15527204 -14.36800972 92.10965017 -15.02120209 94.06476974 C-15.93580089 96.79551074 -16.86216047 99.5219728 -17.79199219 102.24755859 C-18.05813324 103.04870087 -18.32427429 103.84984314 -18.59848022 104.67526245 C-20.50443995 110.20404149 -22.63532125 115.16339401 -27.37890625 118.84765625 C-32.12829103 120.93568681 -36.92248151 120.61920957 -42 120 C-46.63342298 117.80522069 -48.67395607 115.48478457 -51 111 C-53.38504812 100.02341866 -48.06294046 88.56150174 -44.578125 78.3515625 C-43.91378394 76.36570471 -43.25078149 74.37939866 -42.58905029 72.39266968 C-41.20460139 68.24866464 -39.80823403 64.10894684 -38.40234375 59.97216797 C-36.60392875 54.67913578 -34.8294818 49.37845717 -33.06306839 44.07467079 C-31.69766954 39.98010777 -30.32290227 35.88874195 -28.94496918 31.79838181 C-28.28740589 29.84472796 -27.63199028 27.89034983 -26.97879791 25.93523026 C-26.06419911 23.20448926 -25.13783953 20.4780272 -24.20800781 17.75244141 C-23.94186676 16.95129913 -23.67572571 16.15015686 -23.40151978 15.32473755 C-21.49556005 9.79595851 -19.36467875 4.83660599 -14.62109375 1.15234375 C-9.87170897 -0.93568681 -5.07751849 -0.61920957 0 0 Z " fill="#000000" transform="translate(217,152)"/>
</svg>
