<?xml version="1.0" encoding="UTF-8"?>
<svg version="1.1" xmlns="http://www.w3.org/2000/svg" width="512" height="512">
<path d="M0 0 C129.36 0 258.72 0 392 0 C392 51.15 392 102.3 392 155 C388.9224674 156.5387663 386.62425697 155.37940232 383.3125 154.625 C352.54113752 148.14429183 321.19059095 155.28582642 294.80151367 171.95800781 C287.82373384 176.57252674 281.86845902 182.0699976 276 188 C274.69289063 189.27423828 274.69289063 189.27423828 273.359375 190.57421875 C254.99667204 209.42774868 245.14948131 235.13680294 242.89453125 261.015625 C242.80675415 261.98000488 242.71897705 262.94438477 242.62854004 263.93798828 C242.41490191 266.29165346 242.20547623 268.64561068 242 271 C212.41934251 271.09124905 182.83869168 271.162038 153.257923 271.20426132 C149.76569843 271.20926415 146.27347415 271.21444144 142.78125 271.21972656 C142.08601062 271.2207758 141.39077124 271.22182505 140.674464 271.22290608 C129.41701818 271.24031165 118.15965406 271.27185014 106.90225671 271.30861118 C95.35124161 271.34601646 83.800284 271.36793555 72.24920952 271.37635398 C65.76106826 271.38157388 59.27311231 271.39386321 52.78503036 271.42292023 C46.68001192 271.45004055 40.57525538 271.45845171 34.47018242 271.45243073 C32.22800842 271.45353246 29.9858258 271.46150623 27.74370384 271.4768219 C24.68451563 271.49669635 21.62631887 271.49194795 18.56710815 271.48101807 C17.67799425 271.49266943 16.78888035 271.5043208 15.8728236 271.51632524 C10.44824835 271.46386828 7.22615571 270.72493682 3 267 C-1.03457826 262.44639094 -0.41088546 257.21453499 -0.36076355 251.45219421 C-0.3633316 250.38062073 -0.36589966 249.30904724 -0.36854553 248.20500183 C-0.37351769 244.59704706 -0.35693012 240.9895085 -0.34057617 237.3815918 C-0.33965736 234.75775828 -0.34005731 232.13392401 -0.34167194 229.51009083 C-0.3432667 223.18831268 -0.32941697 216.86666242 -0.31016796 210.54491713 C-0.28856837 203.23229314 -0.28618374 195.91971389 -0.28381348 188.60705566 C-0.2680623 169.30051684 -0.22617896 149.9940065 -0.1875 130.6875 C-0.125625 87.560625 -0.06375 44.43375 0 0 Z M126.7890625 64.56640625 C126.01111328 65.11176025 125.23316406 65.65711426 124.43164062 66.21899414 C120.28474036 69.25630713 116.19278531 72.35765507 112.125 75.5 C105.2178854 80.80153487 98.27447743 86.04247412 91.25 91.1875 C88.16472487 93.45570426 85.08173721 95.72699163 82 98 C81.19884766 98.59006836 80.39769531 99.18013672 79.57226562 99.78808594 C77.20743965 101.53653759 74.85255202 103.29758136 72.5 105.0625 C71.7874707 105.58674561 71.07494141 106.11099121 70.34082031 106.65112305 C65.95766877 109.96313524 62.5644294 112.79139682 61.56640625 118.46484375 C61.56511719 119.28082031 61.56382813 120.09679687 61.5625 120.9375 C61.54316406 121.75089844 61.52382813 122.56429687 61.50390625 123.40234375 C62.99001982 131.18396203 69.57478027 135.09117467 75.5625 139.5 C76.49707031 140.19996094 77.43164062 140.89992188 78.39453125 141.62109375 C81.25488279 143.75862673 84.12538215 145.88170247 87 148 C87.82612793 148.60972656 88.65225586 149.21945313 89.50341797 149.84765625 C92.59881117 152.13042096 95.69551886 154.41128859 98.79931641 156.68261719 C105.99944533 161.96160502 113.08754585 167.38411329 120.1484375 172.84765625 C120.98503906 173.49089844 121.82164063 174.13414062 122.68359375 174.796875 C123.42150146 175.36760742 124.15940918 175.93833984 124.91967773 176.52636719 C130.14886993 180.23055731 134.66590873 180.9632489 141 180 C145.35959869 177.99952601 148.22519898 175.49891421 150 171 C150.42555281 168.65296899 150.42555281 168.65296899 150.4375 166.1875 C150.47746094 165.37667969 150.51742187 164.56585938 150.55859375 163.73046875 C148.97871672 156.00785307 142.56597424 151.80068069 136.5 147.5625 C134.81117412 146.35210824 133.1237283 145.13978915 131.4375 143.92578125 C130.55578125 143.29365723 129.6740625 142.6615332 128.765625 142.01025391 C123.94669755 138.50751304 119.22660015 134.87583443 114.5 131.25 C112.7401059 129.90035998 110.97972692 128.55135187 109.21875 127.203125 C108.47560547 126.63239258 107.73246094 126.06166016 106.96679688 125.47363281 C105.34996393 124.2622123 103.68100694 123.12067129 102 122 C103.11975923 118.64072231 103.73602602 118.19085244 106.515625 116.20703125 C107.63590088 115.39673462 107.63590088 115.39673462 108.77880859 114.57006836 C109.59430176 113.9900708 110.40979492 113.41007324 111.25 112.8125 C112.97764778 111.56139313 114.70416729 110.30872709 116.4296875 109.0546875 C117.33686523 108.39694336 118.24404297 107.73919922 119.17871094 107.06152344 C123.9516181 103.57394745 128.66680729 100.01173253 133.375 96.4375 C134.25961914 95.77145752 135.14423828 95.10541504 136.05566406 94.41918945 C145.2595579 88.06015584 145.2595579 88.06015584 150.3359375 78.73046875 C150.42445142 72.96821276 150.02781955 69.4632595 146 65 C142.2896715 61.72618073 138.53025406 61.33807032 133.73046875 61.54736328 C130.74993018 62.04145471 129.24154957 62.83905497 126.7890625 64.56640625 Z M200 66 C196.83267042 71.2293864 194.81134115 76.96316209 192.88378906 82.73583984 C192.60035141 83.56950577 192.31691376 84.40317169 192.02488708 85.26210022 C191.0986753 87.99291286 190.18147734 90.72663447 189.265625 93.4609375 C188.62123966 95.37613736 187.97676802 97.29130819 187.33221436 99.20645142 C185.98639585 103.21102802 184.64580584 107.21731422 183.30810547 111.22460938 C181.59859261 116.3423688 179.86977143 121.45337737 178.13614273 126.56300926 C176.79963264 130.51288339 175.4767505 134.46722473 174.15752411 138.42290115 C173.52614265 140.30866968 172.88984801 142.19280101 172.24842072 144.07517624 C171.35078022 146.71401442 170.47257769 149.35860617 169.59863281 152.00537109 C169.20130196 153.15286079 169.20130196 153.15286079 168.79594421 154.3235321 C166.61359736 161.04945584 165.4938667 167.93195068 168.6875 174.4375 C171.71884694 177.79656012 173.74139648 179.69355631 178.33203125 180.31640625 C182.57498054 180.51360479 185.45879383 180.24053608 189.375 178.5 C194.71235568 173.41680412 196.82455341 166.12726935 199.11621094 159.26416016 C199.54136742 158.01366127 199.54136742 158.01366127 199.97511292 156.73789978 C200.9013247 154.00708714 201.81852266 151.27336553 202.734375 148.5390625 C203.37876034 146.62386264 204.02323198 144.70869181 204.66778564 142.79354858 C206.01360415 138.78897198 207.35419416 134.78268578 208.69189453 130.77539062 C210.40140739 125.6576312 212.13022857 120.54662263 213.86385727 115.43699074 C215.20036736 111.48711661 216.5232495 107.53277527 217.84247589 103.57709885 C218.47385735 101.69133032 219.11015199 99.80719899 219.75157928 97.92482376 C220.64921978 95.28598558 221.52742231 92.64139383 222.40136719 89.99462891 C222.66625443 89.22963577 222.93114166 88.46464264 223.20405579 87.6764679 C225.38640264 80.95054416 226.5061333 74.06804932 223.3125 67.5625 C220.28115306 64.20343988 218.25860352 62.30644369 213.66796875 61.68359375 C207.97555662 61.41902887 204.28110818 61.92275412 200 66 Z M244 67 C242.16708479 69.95611578 241.65518929 72.35028254 241.5625 75.8125 C241.52253906 76.62332031 241.48257813 77.43414062 241.44140625 78.26953125 C243.02128328 85.99214693 249.43402576 90.19931931 255.5 94.4375 C257.18882588 95.64789176 258.8762717 96.86021085 260.5625 98.07421875 C261.44421875 98.70634277 262.3259375 99.3384668 263.234375 99.98974609 C268.05330245 103.49248696 272.77339985 107.12416557 277.5 110.75 C279.2598941 112.09964002 281.02027308 113.44864813 282.78125 114.796875 C283.52439453 115.36760742 284.26753906 115.93833984 285.03320312 116.52636719 C286.65003607 117.7377877 288.31899306 118.87932871 290 120 C288.88024077 123.35927769 288.26397398 123.80914756 285.484375 125.79296875 C284.73752441 126.3331665 283.99067383 126.87336426 283.22119141 127.42993164 C282.40569824 128.0099292 281.59020508 128.58992676 280.75 129.1875 C279.02235222 130.43860687 277.29583271 131.69127291 275.5703125 132.9453125 C274.66313477 133.60305664 273.75595703 134.26080078 272.82128906 134.93847656 C268.0483819 138.42605255 263.33319271 141.98826747 258.625 145.5625 C257.29807129 146.56156372 257.29807129 146.56156372 255.94433594 147.58081055 C246.7404421 153.93984416 246.7404421 153.93984416 241.6640625 163.26953125 C241.57554858 169.03178724 241.97218045 172.5367405 246 177 C249.7103285 180.27381927 253.46974594 180.66192968 258.26953125 180.45263672 C261.25006982 179.95854529 262.75845043 179.16094503 265.2109375 177.43359375 C265.98888672 176.88823975 266.76683594 176.34288574 267.56835938 175.78100586 C271.71525964 172.74369287 275.80721469 169.64234493 279.875 166.5 C286.7821146 161.19846513 293.72552257 155.95752588 300.75 150.8125 C303.83527513 148.54429574 306.91826279 146.27300837 310 144 C310.80115234 143.40993164 311.60230469 142.81986328 312.42773438 142.21191406 C314.79256035 140.46346241 317.14744798 138.70241864 319.5 136.9375 C320.2125293 136.41325439 320.92505859 135.88900879 321.65917969 135.34887695 C326.04233123 132.03686476 329.4355706 129.20860318 330.43359375 123.53515625 C330.43488281 122.71917969 330.43617188 121.90320313 330.4375 121.0625 C330.46650391 119.84240234 330.46650391 119.84240234 330.49609375 118.59765625 C329.00998018 110.81603797 322.42521973 106.90882533 316.4375 102.5 C315.50292969 101.80003906 314.56835938 101.10007813 313.60546875 100.37890625 C310.74511721 98.24137327 307.87461785 96.11829753 305 94 C304.17387207 93.39027344 303.34774414 92.78054687 302.49658203 92.15234375 C299.40118883 89.86957904 296.30448114 87.58871141 293.20068359 85.31738281 C286.00055467 80.03839498 278.91245415 74.61588671 271.8515625 69.15234375 C271.01496094 68.50910156 270.17835938 67.86585938 269.31640625 67.203125 C268.57849854 66.63239258 267.84059082 66.06166016 267.08032227 65.47363281 C259.5352082 60.12891875 250.53959561 59.94020929 244 67 Z " fill="#000000" transform="translate(0,91)"/>
<path d="M0 0 C2.4326433 1.91056917 4.75364666 3.90013189 7.06640625 5.953125 C8.071875 6.74589844 8.071875 6.74589844 9.09765625 7.5546875 C24.92395041 20.30364668 35.37692769 40.98391777 38.06640625 60.953125 C40.19360372 85.61095037 36.61650695 109.57429039 21.00390625 129.453125 C19.70140416 130.96181468 18.38957864 132.4625308 17.06640625 133.953125 C16.53789062 134.6234375 16.009375 135.29375 15.46484375 135.984375 C2.24627452 152.39363336 -18.44677702 161.89694942 -38.93359375 164.953125 C-58.15182793 166.16883216 -75.67546091 164.99563973 -92.93359375 155.953125 C-93.79855469 155.54707031 -94.66351563 155.14101563 -95.5546875 154.72265625 C-116.38861879 144.41152335 -130.72543394 125.15884994 -138.53515625 103.69921875 C-146.09280753 80.69910484 -143.60302663 54.98050568 -133.12109375 33.390625 C-129.79058495 26.93939081 -125.75662764 21.38642033 -120.93359375 15.953125 C-120.40507812 15.2828125 -119.8765625 14.6125 -119.33203125 13.921875 C-91.27616577 -20.90609594 -35.55651168 -24.80907073 0 0 Z " fill="#000000" transform="translate(412.93359375,287.046875)"/>
<path d="M0 0 C1.03059015 -0.00597315 2.06118029 -0.01194629 3.12300044 -0.01810044 C4.24848409 -0.00936192 5.37396773 -0.00062339 6.53355694 0.00837994 C7.7343099 0.00581666 8.93506287 0.00325339 10.17220229 0.00061244 C13.50176432 -0.00347458 16.83079731 0.00590038 20.16029537 0.02094662 C23.7519246 0.03390202 27.3435375 0.02951788 30.93518353 0.0272398 C37.15680404 0.02566675 43.37833017 0.03507924 49.59992695 0.05195332 C58.59529568 0.07633447 67.59061878 0.08414768 76.58601698 0.08791729 C91.18042852 0.09448316 105.77478977 0.11444801 120.369174 0.14282513 C134.54625478 0.17036218 148.72332189 0.19159749 162.900424 0.20434856 C163.77430009 0.20513673 164.64817618 0.20592491 165.54853336 0.20673696 C169.93251298 0.21065207 174.31649269 0.2144432 178.70047247 0.21817267 C215.06998342 0.24927282 251.43940132 0.30457818 287.80887127 0.36914349 C287.80887127 20.49914349 287.80887127 40.62914349 287.80887127 61.36914349 C188.14887127 61.36914349 88.48887127 61.36914349 -14.19112873 61.36914349 C-14.19112873 9.36914349 -14.19112873 9.36914349 -10.19112873 3.36914349 C-6.74727449 0.73973563 -4.29763292 -0.00551214 0 0 Z " fill="#000000" transform="translate(14.191128730773926,-0.3691434860229492)"/>
<path d="M0 0 C3.65464986 1.53392788 5.94394 3.7262778 8.703125 6.54296875 C9.60160156 7.45240234 10.50007813 8.36183594 11.42578125 9.29882812 C12.36756931 10.26134531 13.30897355 11.22423819 14.25 12.1875 C20.31772097 18.37043086 26.40443412 24.38200454 33 30 C41.80896278 37.82325731 48.88896865 45.68194945 49.70629883 57.9375 C49.90218713 67.1825525 47.3943907 74.83135951 41.359375 81.9296875 C39.65986988 83.52595166 37.97419676 84.76305514 36 86 C35.37867188 86.40992188 34.75734375 86.81984375 34.1171875 87.2421875 C27.39053979 90.95079555 18.46135972 91.65605014 11 90 C0.26543434 86.34824302 -6.6494346 79.04951606 -14.25 71.0625 C-16.47919347 68.75666999 -18.71638387 66.4586618 -20.953125 64.16015625 C-21.48296997 63.612491 -22.01281494 63.06482574 -22.55871582 62.50056458 C-26.51649311 58.42963792 -30.66204968 54.6632322 -35 51 C-36.35058429 49.74751558 -37.68998267 48.4823551 -39 47.1875 C-39.5775 46.62417969 -40.155 46.06085938 -40.75 45.48046875 C-42 44 -42 44 -42 42 C-40.29236392 40.79193831 -38.53043992 39.66043795 -36.75 38.5625 C-29.78649584 34.04074406 -23.9647948 28.74710156 -18 23 C-17.35417969 22.41734375 -16.70835937 21.8346875 -16.04296875 21.234375 C-9.81546311 15.45898335 -3.80079944 7.60159887 0 0 Z " fill="#000000" transform="translate(463,422)"/>
<path d="M0 0 C12.436875 -0.12375 12.436875 -0.12375 25.125 -0.25 C29.03690186 -0.30462402 29.03690186 -0.30462402 33.02783203 -0.36035156 C35.10448382 -0.37203855 37.18114479 -0.38223035 39.2578125 -0.390625 C40.86354126 -0.4213208 40.86354126 -0.4213208 42.50170898 -0.45263672 C48.66439338 -0.45551581 52.33284623 -0.16624644 57 4 C61.86303477 10.37225246 61.1382677 18.00772936 61.09765625 25.6484375 C61.09664917 26.54667236 61.09564209 27.44490723 61.09460449 28.37036133 C61.08939768 31.70525399 61.07543651 35.04012836 61.0625 38.375 C61.0315625 49.574375 61.0315625 49.574375 61 61 C40.87 61 20.74 61 0 61 C0 40.87 0 20.74 0 0 Z " fill="#000000" transform="translate(331,0)"/>
</svg>
